<mxfile host="app.diagrams.net" modified="2024-07-22T10:15:00.875Z" agent="Mozilla/5.0 (Windows NT 10.0; Win64; x64; rv:128.0) Gecko/20100101 Firefox/128.0" etag="LUrHVjjYPmqgwxo6vMiI" version="24.7.1" type="github">
  <diagram name="Page-1" id="LxoU8ky-F4VsORN4qktP">
    <mxGraphModel dx="1434" dy="1581" grid="1" gridSize="10" guides="1" tooltips="1" connect="1" arrows="1" fold="1" page="1" pageScale="1" pageWidth="1169" pageHeight="827" math="0" shadow="0">
      <root>
        <mxCell id="0" />
        <mxCell id="1" parent="0" />
        <mxCell id="13" value="Github Actions" style="whiteSpace=wrap;strokeWidth=2;" parent="1" vertex="1">
          <mxGeometry x="750" y="-25" width="100" height="50" as="geometry" />
        </mxCell>
        <mxCell id="16" value="Git Repository" style="whiteSpace=wrap;strokeWidth=2;" parent="1" vertex="1">
          <mxGeometry x="21.5" y="-26" width="117" height="54" as="geometry" />
        </mxCell>
        <mxCell id="17" value="VS Code" style="whiteSpace=wrap;strokeWidth=2;" parent="1" vertex="1">
          <mxGeometry x="175" y="-25" width="99" height="55" as="geometry" />
        </mxCell>
        <mxCell id="18" value="" style="curved=1;startArrow=none;endArrow=block;exitX=1;exitY=0.5;entryX=0;entryY=0.5;entryDx=0;entryDy=0;" parent="1" source="16" target="17" edge="1">
          <mxGeometry relative="1" as="geometry">
            <Array as="points" />
            <mxPoint x="170" y="3" as="targetPoint" />
          </mxGeometry>
        </mxCell>
        <mxCell id="3JcrbyyqUBlUs0YY1mea-34" value="" style="shape=image;verticalLabelPosition=bottom;labelBackgroundColor=default;verticalAlign=top;aspect=fixed;imageAspect=0;image=data:image/svg+xml,PHN2ZyB4bWxucz0iaHR0cDovL3d3dy53My5vcmcvMjAwMC9zdmciIHZpZXdCb3g9IjAgMCAzMiAzMiI+PGcgZmlsbD0iIzgxM2NmMyI+PHBhdGggZD0ibTEyLjA0MiA2Ljg1OCA4LjAyOSA0LjU5djkuMDE0bC04LjAyOS00LjU5NHoiLz48cGF0aCBkPSJtMjAuNSAyMC40MTUgNy45NTktNC41NzV2LTguOTUzbC03Ljk1OSA0LjU0MnoiLz48cGF0aCBkPSJtMy41NDEgMTEuMDEgOC4wMyA0LjU4OXYtOS4wMDlsLTguMDMtNC41OXoiLz48cGF0aCBkPSJtMTIuMDQyIDI1LjQxIDguMDI5IDQuNTl2LTkuMDQzbC04LjAyOS00LjU4OXoiLz48L2c+PC9zdmc+;" vertex="1" parent="1">
          <mxGeometry x="940" y="41.28" width="63.22" height="63.22" as="geometry" />
        </mxCell>
        <mxCell id="3JcrbyyqUBlUs0YY1mea-36" value="" style="shape=image;verticalLabelPosition=bottom;labelBackgroundColor=default;verticalAlign=top;aspect=fixed;imageAspect=0;image=data:image/svg+xml,PHN2ZyB2aWV3Qm94PSI1Ny43OCAwLjAzIDI4NC40NCAyNDQuOTQiIHJvbGU9ImltZyIgeG1sbnM9Imh0dHA6Ly93d3cudzMub3JnLzIwMDAvc3ZnIj48dGl0bGU+RG9ja2VyIChtZW1iZXIpIGxvZ288L3RpdGxlPjxzdHlsZT5zdmd7ZW5hYmxlLWJhY2tncm91bmQ6bmV3IDAgMCAzMzYgMjM1LjJ9PC9zdHlsZT48ZGVmcz48Y2xpcFBhdGggaWQ9ImEiPjxwYXRoIGQ9Ik0wIDI3OS40MzNoMzIyLjVWMEgweiIvPjwvY2xpcFBhdGg+PC9kZWZzPjxwYXRoIHBvaW50ZXItZXZlbnRzPSJub25lIiBkPSJNMCAwaDQwMHYyNDVIMHoiIGZpbGw9Im5vbmUiLz48ZyB0cmFuc2Zvcm09Im1hdHJpeCguODY2MjggMCAwIC0uODY2MjggNjAuOTYyIDI0Mi4xNzgpIiBjbGlwLXBhdGg9InVybCgjYSkiIGZpbGw9IiMyNDk2ZWQiPjxwYXRoIGQ9Ik00NC45OTggMjMuMzE2YTE3LjIzIDE3LjIzIDAgMCAwLTMuNTgzLTUuMzI4IDE2Ljk3IDE2Ljk3IDAgMCAwLTUuMzMtMy42MzNjLTIuMDQtLjg5My00LjIyMS0xLjMzOS02LjU0OC0xLjMzOS0yLjM1OCAwLTQuNTU2LjQ0Ni02LjU5NiAxLjM0LTIuMDQuODktMy44MSAyLjA5My01LjMwMyAzLjYwNy0xLjUgMS41MTMtMi42ODYgMy4yOS0zLjU2MiA1LjMzLS44NzcgMi4wMzctMS4zMTUgNC4yMDYtMS4zMTUgNi41IDAgMi4yOTMuNDM4IDQuNDYgMS4zMTUgNi41Ljg3NiAyLjAzNyAyLjA2MiAzLjgxNSAzLjU2MiA1LjMzIDEuNDk0IDEuNTEgMy4yNjMgMi43MTQgNS4zMDMgMy42MDggMi4wNC44OSA0LjIzOCAxLjMzNyA2LjU5NiAxLjMzNyAyLjMyNyAwIDQuNTA5LS40NDcgNi41NDktMS4zMzcgMi4wMzgtLjg5NCAzLjgxNi0yLjEwNCA1LjMyOS0zLjYzM2ExNy4yNjMgMTcuMjYzIDAgMCAwIDMuNTgzLTUuMzNjLjg3Ni0yLjAyNCAxLjMxNS00LjE4MiAxLjMxNS02LjQ3NiAwLTIuMjkzLS40NC00LjQ1NC0xLjMxNS02LjQ3Nk01MS4yODUgNzkuNWMtMS40MzUgMC0yLjYyMy0uNDcyLTMuNTYxLTEuNDEtLjk0Mi0uOTQtMS40MTEtMi4xMjctMS40MTEtMy41NlY1MC42OGMtNC44NDMgMy45Mi0xMC40MzYgNS44NzgtMTYuNzc2IDUuODc4LTcuMzkzIDAtMTMuNzAyLTIuNjEyLTE4LjkyNy03LjgzOC01LjIyNi01LjIyOC03LjgzOC0xMS41MzQtNy44MzgtMTguOTI3IDAtNy4zOTIgMi42MTItMTMuNzAyIDcuODM4LTE4LjkyNyA1LjIyNS01LjIyNiAxMS41MzQtNy44MzcgMTguOTI3LTcuODM3IDcuMzI4IDAgMTMuNjM3IDIuNjExIDE4LjkyNyA3LjgzNyA1LjIyNiA1LjE2MyA3LjgzOCAxMS40NzIgNy44MzggMTguOTI3Vjc0LjUzYzAgMS40MzMtLjQ4NiAyLjYyLTEuNDU4IDMuNTYtLjk3Mi45MzgtMi4xNTggMS40MS0zLjU2IDEuNDFtNTIuNDI2LTU2LjE4NGExNy4yMjEgMTcuMjIxIDAgMCAwLTMuNTg2LTUuMzI4IDE2Ljk2NSAxNi45NjUgMCAwIDAtNS4zMjgtMy42MzNjLTIuMDQtLjg5My00LjIyMy0xLjMzOS02LjU0OS0xLjMzOS0yLjM1OCAwLTQuNTU3LjQ0Ni02LjU5NCAxLjM0LTIuMDQuODktMy44MDkgMi4wOTMtNS4zMDYgMy42MDctMS40OTkgMS41MTMtMi42ODUgMy4yOS0zLjU2MiA1LjMzLS44NzYgMi4wMzctMS4zMTQgNC4yMDYtMS4zMTQgNi41IDAgMi4yOTMuNDM4IDQuNDYgMS4zMTQgNi41Ljg3NyAyLjAzNyAyLjA2MyAzLjgxNSAzLjU2MiA1LjMzIDEuNDk3IDEuNTEgMy4yNjYgMi43MTQgNS4zMDYgMy42MDggMi4wMzcuODkgNC4yMzYgMS4zMzcgNi41OTQgMS4zMzcgMi4zMjYgMCA0LjUxLS40NDcgNi41NS0xLjMzNyAyLjAzNy0uODk0IDMuODE0LTIuMTA0IDUuMzI3LTMuNjMzYTE3LjI1NCAxNy4yNTQgMCAwIDAgMy41ODYtNS4zM2MuODc1LTIuMDI0IDEuMzEyLTQuMTgyIDEuMzEyLTYuNDc2IDAtMi4yOTMtLjQzNy00LjQ1NC0xLjMxMi02LjQ3Nm0zLjQ2NCAyNS40MDNjLTUuMjkgNS4yMjYtMTEuNTk5IDcuODM4LTE4LjkyNyA3LjgzOC03LjM5MyAwLTEzLjcwMi0yLjYxMi0xOC45MjUtNy44MzgtNS4yMjgtNS4yMjgtNy44NC0xMS41MzQtNy44NC0xOC45MjcgMC03LjM5MiAyLjYxMi0xMy43MDIgNy44NC0xOC45MjcgNS4yMjMtNS4yMjYgMTEuNTMyLTcuODM3IDE4LjkyNS03LjgzNyA3LjMyOCAwIDEzLjYzNyAyLjYxMSAxOC45MjcgNy44MzcgNS4yMjUgNS4xNjMgNy44NCAxMS40NzIgNy44NCAxOC45MjctLjAzNCAzLjY5NS0uNjk1IDcuMTIxLTEuOTg1IDEwLjI3NS0xLjI5IDMuMTU1LTMuMjQgNi4wMzgtNS44NTUgOC42NTJtMTEwLjY2MSAyLjg2OGMwIC42Ny0uMTMzIDEuMzA2LS40MDUgMS45MWE1LjUzOSA1LjUzOSAwIDAgMS0xLjA3NiAxLjYwMyA0Ljc5NyA0Ljc5NyAwIDAgMS0xLjU3OCAxLjA3NyA1LjAzMSA1LjAzMSAwIDAgMS0xLjk2LjM4IDQuODgzIDQuODgzIDAgMCAxLTIuNjc2LS43NjNMMTgxLjU2IDM3LjJ2MzcuMjhjMCAxLjQtLjQ4NyAyLjU4Ny0xLjQ1OSAzLjU2Mi0uOTcuOTY5LTIuMTQyIDEuNDU3LTMuNTEzIDEuNDU3LTEuNDA0IDAtMi41ODktLjQ4OC0zLjU1OS0xLjQ1Ny0uOTcyLS45NzUtMS40Ni0yLjE2MS0xLjQ2LTMuNTYyVjguMDQ3YzAtMS4zNy40ODgtMi41NTIgMS40Ni0zLjUzNy45Ny0uOTg4IDIuMTU1LTEuNDgyIDMuNTU5LTEuNDgyIDEuMzcxIDAgMi41NDMuNDk0IDMuNTEzIDEuNDgyLjk3Mi45ODUgMS40NTkgMi4xNjcgMS40NTkgMy41MzdWMjUuM2w1LjgzMSAzLjgyMiAyMi4wODItMjQuODA1Yy44ODktLjg2MSAyLjAwNi0xLjI5IDMuMzQzLTEuMjkuNzAxIDAgMS4zNTUuMTI2IDEuOTYuMzgyLjYwNS4yNTQgMS4xMy42MTMgMS41NzggMS4wNzUuNDQ3LjQ2LjgwNS45OTcgMS4wNzYgMS42MDIuMjcyLjYwMy40MDUgMS4yNDMuNDA1IDEuOTEgMCAxLjMwNy0uNDYzIDIuNDctMS4zODYgMy40OUwxOTUuODk4IDM0LjYybDIwLjAyNiAxM2MxLjI3Mi44NjIgMS45MTEgMi4xOCAxLjkxMSAzLjk2N20tODIuOTE4LTkuOTE3YTE3LjE0NiAxNy4xNDYgMCAwIDAgNS4zNTIgMy41ODNjMi4wNC44NzcgNC4yMjMgMS4zMTUgNi41NDkgMS4zMTUgMi4xMDMgMCA0LjA0NS0uMzUxIDUuODMxLTEuMDUgMS43ODItLjcwMiAzLjQ4OS0xLjc0IDUuMTEzLTMuMTA3YTUuMDY1IDUuMDY1IDAgMCAxIDMuMjUtMS4xNDhjMS40MzUgMCAyLjYyLjQ3OCAzLjU2MSAxLjQzNS45MzkuOTU2IDEuNDExIDIuMTUgMS40MTEgMy41ODMgMCAxLjQ5OC0uNTc0IDIuNzU3LTEuNzIyIDMuNzc4LTQuOTA4IDQuMzMtMTAuNzIgNi40OTgtMTcuNDQ0IDYuNDk4LTcuMzk0IDAtMTMuNzAzLTIuNjEyLTE4LjkyNi03LjgzNy01LjIyNi01LjIyOC03Ljg0LTExLjUzNS03Ljg0LTE4LjkyOCAwLTcuMzkyIDIuNjE0LTEzLjcwMSA3Ljg0LTE4LjkyNyA1LjIyMy01LjIyNSAxMS41MzItNy44MzcgMTguOTI2LTcuODM3IDYuNjkgMCAxMi41MDUgMi4xNjYgMTcuNDQ0IDYuNSAxLjA1MiAxLjA1MyAxLjU3NyAyLjI3NiAxLjU3NyAzLjY4IDAgMS40MzUtLjQ3MSAyLjYyLTEuNDA4IDMuNTYyLS45NDEuOTM4LTIuMTI5IDEuNDEtMy41NjIgMS40MS0xLjIxLS4wMzMtMi4yNjItLjM4My0zLjE1NC0xLjA1Mi0xLjU5My0xLjM3LTMuMjg0LTIuMzk4LTUuMDY2LTMuMDg0LTEuNzg2LS42ODUtMy43MjgtMS4wMjctNS44MzEtMS4wMjctMi4zMjYgMC00LjUwOS40MzgtNi41NDkgMS4zMTQtMi4wMzkuODc3LTMuODI0IDIuMDctNS4zNTIgMy41ODRhMTYuNjA2IDE2LjYwNiAwIDAgMC0zLjYwOCA1LjMzYy0uODc3IDIuMDM4LTEuMzE1IDQuMjItMS4zMTUgNi41NDcgMCAyLjMyNS40MzggNC41MSAxLjMxNSA2LjU1YTE2LjY1MiAxNi42NTIgMCAwIDAgMy42MDggNS4zMjhtMTgyLjE5NSAxMS41NDNjLS44OTIuODYtMi4wMTYgMS41MzUtMy4zNjcgMi4wMzFhMTkuOTI1IDE5LjkyNSAwIDAgMS00LjQ0NSAxLjAyOCAzOC40OTIgMzguNDkyIDAgMCAxLTQuNTE5LjI4NWMtMy4xODYgMC02LjE4Mi0uNTEtOC45ODUtMS41MjlhMjcuMzk3IDI3LjM5NyAwIDAgMS03Ljc5LTQuMzk4di45NTdjMCAxLjM2OC0uNDg2IDIuNTQxLTEuNDU3IDMuNTEzLS45Ny45NzEtMi4xNDUgMS40NTctMy41MTMgMS40NTctMS40MDQgMC0yLjU5LS40ODYtMy41NjItMS40NTctLjk3LS45NzItMS40NTgtMi4xNDUtMS40NTgtMy41MTNWNy45OThjMC0xLjM3LjQ4OC0yLjU0IDEuNDU4LTMuNTEzLjk3Mi0uOTczIDIuMTU4LTEuNDU3IDMuNTYyLTEuNDU3IDEuMzY4IDAgMi41NDIuNDg0IDMuNTEzIDEuNDU3Ljk3MS45NzIgMS40NTcgMi4xNDMgMS40NTcgMy41MTN2MjEuNzk0YzAgMi4zMjUuNDQgNC41MSAxLjMxNCA2LjU1Ljg3NyAyLjAzNyAyLjA3MSAzLjgxMiAzLjU4NCA1LjMyOGExNi45MDUgMTYuOTA1IDAgMCAwIDUuMzMgMy41ODNjMi4wMzguODc3IDQuMjIxIDEuMzE1IDYuNTQ3IDEuMzE1IDIuMzU4IDAgNC41NDEtLjM5OCA2LjU1LTEuMTk0Ljc5NC0uMzUyIDEuNDk3LS41MjYgMi4xMDItLjUyNmE0Ljk1IDQuOTUgMCAwIDEgMS45Ni4zODMgNC42ODggNC42ODggMCAwIDEgMS41NzcgMS4wNzVjLjQ0NS40Ni44MDMuOTk0IDEuMDc1IDEuNjAxLjI3MS42MDMuNDA3IDEuMjU3LjQwNyAxLjk2IDAgMS4zNjgtLjQ0NyAyLjQ4NS0xLjM0IDMuMzQ2TTIyOS43NTUgMzQuN2MuNTA3IDEuNzUgMS4yOSAzLjM1IDIuMzQgNC44MDNhMTYuNjM3IDE2LjYzNyAwIDAgMCAzLjczIDMuNzMgMTcuNTkyIDE3LjU5MiAwIDAgMCA0LjczIDIuNDEyYzEuNzIuNTcyIDMuNDkuODYgNS4zMDYuODYgMS44MTUgMCAzLjU3NS0uMjg4IDUuMjgtLjg2YTE3LjI0OCAxNy4yNDggMCAwIDAgNC42ODItMi40MTMgMTcuMjEyIDE3LjIxMiAwIDAgMCAzLjcyOC0zLjcyOSAxNi4wMzUgMTYuMDM1IDAgMCAwIDIuNDE2LTQuODAzem00MC45MTEgNS4zMjhjLTEuMzA4IDMuMTcxLTMuMjY4IDYuMDQ3LTUuODc3IDguNjI3LTUuMjkzIDUuMjI2LTExLjYwMiA3LjgzOC0xOC45MjggNy44MzgtNy4zOTUgMC0xMy43MDQtMi42MTItMTguOTI3LTcuODM4LTUuMjI4LTUuMjI4LTcuODQtMTEuNTM1LTcuODQtMTguOTI3IDAtNy4zOTIgMi42MTItMTMuNzAyIDcuODQtMTguOTI3IDUuMjIzLTUuMjI2IDExLjUzMi03LjgzNyAxOC45MjctNy44MzcgNi43MjEgMCAxMi41NTIgMi4xNjcgMTcuNDkyIDYuNWwuMTk3LjE4Yy40MzQuMzYyLjgwMS43NTEgMS4xMjcgMS4yNCAxLjU5NCAyLjM3OCAxLjAyNCA1LjU1My0xLjI3MyA3LjA5Mi0xLjkzNyAxLjI5Ny00LjQ3IDEtNi4xNzUtLjU0OS0uMTYtLjE0OC0uNjMtLjU4NC0uNzEtLjY1YTMuNjU0IDMuNjU0IDAgMCAxLS4wNy0uMDZjLTEuNDgtMS4yNDYtMy4wODItMi4xODItNC44MDYtMi44MDgtMS43NTYtLjYzOS0zLjY4LS45NTctNS43ODItLjk1Ny0xLjg1IDAtMy42MjYuMjg3LTUuMzMyLjg2YTE3LjIyNCAxNy4yMjQgMCAwIDAtNC42ODMgMi40MTQgMTYuNzA5IDE2LjcwOSAwIDAgMC0zLjcwMiAzLjczIDE2LjE5NyAxNi4xOTcgMCAwIDAtMi4zODkgNC44MDNoMzcuODUyYzEuNCAwIDIuNTg3LjQ2OCAzLjU2IDEuNDEuOTcxLjkzOCAxLjQ2IDIuMTI3IDEuNDYgMy41NiAwIDMuNjk0LS42NTggNy4xMjctMS45NiAxMC4zbTI5LjM5MS0zNS45NTNjLTEuNTUxIDAtMi42ODUgMS4yMTUtMi42ODUgMi43NDcgMCAxLjUxIDEuMTM0IDIuNzQ1IDIuNjY0IDIuNzQ1IDEuNTMyIDAgMi42NDItMS4yMzYgMi42NDItMi43NjcgMC0xLjUxLTEuMTEtMi43MjUtMi42MjEtMi43MjVtLS4wMjEgNi4xODZjLTEuOTcgMC0zLjU0Mi0xLjUzMi0zLjU0Mi0zLjQzOSAwLTEuOTUyIDEuNTcyLTMuNDggMy41NDItMy40OCAxLjk5MyAwIDMuNTIzIDEuNTI4IDMuNTIzIDMuNDggMCAxLjkwNy0xLjUzIDMuNDQtMy41MjMgMy40NCIvPjxwYXRoIGQ9Ik0yOTkuODkgNi45NjhoLS4zNzd2Ljk4N2MuMDg0LjAyLjIzLjA0LjQ0LjA0LjUwNCAwIC43MzUtLjIxLjczNS0uNTIzIDAtLjM1Ny0uMzU3LS41MDQtLjc5OC0uNTA0bS45NDQtLjI1MXYuMDQzYy40MTkuMTI1LjcxMi40MTguNzEyLjc5NiAwIC4zMzYtLjE0Ni42MDktLjMzNC43NTQtLjI1My4xNDctLjU0NS4yNTMtMS4xOTUuMjUzLS41NjcgMC0xLjAwOC0uMDQyLTEuMzIxLS4xMDZWNS4wMTloLjc5N3YxLjM4NWguMzc3Yy40NCAwIC42NS0uMTY4LjcxMi0uNTQ1LjEwNi0uNC4xNjktLjcxNC4yNzMtLjg0aC44NmMtLjA4NS4xMjYtLjE0Ni4zMzYtLjI1Mi44Ni0uMTA0LjQ2LS4yOTQuNzEyLS42My44MzhtLTguNzAxIDIwMS4yNjljLS42NTMuNTI1LTYuNzUzIDUuMTI2LTE5LjYxIDUuMTI2LTMuMjE0IDAtNi42MDYtLjI5Mi0xMC4xMy0uODcxLTIuNDg1IDE3LjA1Ny0xNi41NjMgMjUuMzY1LTE3LjIxNyAyNS43NDJsLTMuNDU3IDEuOTktMi4yNzUtMy4yNzVjLS4xNy0uMjQ0LTQuMTcyLTYuMDY4LTYuMTM1LTE0LjM1Ni0yLjMwNS05LjczLS45MDUtMTguODcgNC4wNC0yNi42OTEtNS45NzItMy4zMjMtMTUuNTA2LTQuMTkxLTE3LjQ4Ny00LjIxNUg2MS4yNjZjLTQuMTM4IDAtNy41Mi0zLjM2Mi03LjUzNi03LjQ5NC0uMDYxLTE0LjU4NyAyLjM0My0yOC42ODIgNi45NTItNDAuNzYxIDUuNDY2LTE0LjMyNSAxMy41OTctMjQuODcyIDI0LjE2Ni0zMS4zNDYgMTEuODUtNy4yNiAzMS4xNDQtMTEuNDIyIDUyLjkzNC0xMS40MjIgMTAuMTk2IDAgMjAuMzU3LjkyIDI5LjM4NSAyLjY2IDE0LjIyOSAyLjc0NSAyNy4xNDYgNy40MzQgMzguMzkgMTMuOTM3YTEwNS4xNTYgMTA1LjE1NiAwIDAgMSAyNi4xNzkgMjEuNDM3YzEyLjU3IDE0LjIxNCAyMC4wNTQgMzAuMDg4IDI1LjYyIDQ0LjEzOGE1My42NDEgNTMuNjQxIDAgMCAxIDIuMjE4LS4wNDZjMTMuNzU5IDAgMjIuMjE2IDUuNDk5IDI2Ljg4OSAxMC4xMTMgNS4wNjcgNS4wMDMgNi44NyA5Ljk5MyA3LjA1OSAxMC41NDVsLjk4NCAyLjg4MnoiLz48cGF0aCBkPSJNNzUuOTY2IDE5Ni4wNzRoMjEuMjUxYTEuODYgMS44NiAwIDAgMSAxLjg2IDEuODZ2MTguOTM0YTEuODYgMS44NiAwIDAgMS0xLjg2IDEuODZoLTIxLjI1YTEuODYgMS44NiAwIDAgMS0xLjg2LTEuODZ2LTE4LjkzNGExLjg2IDEuODYgMCAwIDEgMS44Ni0xLjg2bTI5LjI4NCAwaDIxLjI1YTEuODYgMS44NiAwIDAgMSAxLjg2MSAxLjg2djE4LjkzNGExLjg2IDEuODYgMCAwIDEtMS44NiAxLjg2aC0yMS4yNWExLjg2IDEuODYgMCAwIDEtMS44Ni0xLjg2di0xOC45MzRhMS44NiAxLjg2IDAgMCAxIDEuODYtMS44Nm0yOS43MzggMGgyMS4yNTJhMS44NiAxLjg2IDAgMCAxIDEuODYgMS44NnYxOC45MzRhMS44NiAxLjg2IDAgMCAxLTEuODYgMS44NkgxMzQuOTlhMS44NiAxLjg2IDAgMCAxLTEuODYtMS44NnYtMTguOTM0YTEuODYgMS44NiAwIDAgMSAxLjg2LTEuODZtMjkuMzgzIDBoMjEuMjUxYTEuODYgMS44NiAwIDAgMSAxLjg2IDEuODZ2MTguOTM0YTEuODYgMS44NiAwIDAgMS0xLjg2IDEuODZoLTIxLjI1MWExLjg2IDEuODYgMCAwIDEtMS44Ni0xLjg2di0xOC45MzRhMS44NiAxLjg2IDAgMCAxIDEuODYtMS44Nm0tNTkuMTIyIDI3LjI0MmgyMS4yNWExLjg2IDEuODYgMCAwIDEgMS44NjEgMS44NnYxOC45MzRhMS44NiAxLjg2IDAgMCAxLTEuODYgMS44NmgtMjEuMjVhMS44NiAxLjg2IDAgMCAxLTEuODYtMS44NnYtMTguOTMzYTEuODYgMS44NiAwIDAgMSAxLjg2LTEuODYxbTI5LjczOCAwaDIxLjI1MmExLjg2IDEuODYgMCAwIDEgMS44NiAxLjg2djE4LjkzNGExLjg2IDEuODYgMCAwIDEtMS44NiAxLjg2SDEzNC45OWExLjg2IDEuODYgMCAwIDEtMS44Ni0xLjg2di0xOC45MzNhMS44NiAxLjg2IDAgMCAxIDEuODYtMS44NjFtMjkuMzgzIDBoMjEuMjUxYTEuODYgMS44NiAwIDAgMSAxLjg2IDEuODZ2MTguOTM0YTEuODYgMS44NiAwIDAgMS0xLjg2IDEuODZoLTIxLjI1MWExLjg2IDEuODYgMCAwIDEtMS44Ni0xLjg2di0xOC45MzNhMS44NiAxLjg2IDAgMCAxIDEuODYtMS44NjFtMCAyNy4yNDJoMjEuMjUxYTEuODYgMS44NiAwIDAgMSAxLjg2IDEuODZ2MTguOTM0YTEuODYgMS44NiAwIDAgMS0xLjg2IDEuODZoLTIxLjI1MWExLjg2IDEuODYgMCAwIDEtMS44Ni0xLjg2di0xOC45MzRhMS44NiAxLjg2IDAgMCAxIDEuODYtMS44Nm0yOS42NDItNTQuNDg0aDIxLjI1MWExLjg2IDEuODYgMCAwIDEgMS44NiAxLjg2djE4LjkzNGExLjg2IDEuODYgMCAwIDEtMS44NiAxLjg2aC0yMS4yNWExLjg2IDEuODYgMCAwIDEtMS44Ni0xLjg2di0xOC45MzRhMS44NiAxLjg2IDAgMCAxIDEuODYtMS44NiIvPjwvZz48L3N2Zz4=;" vertex="1" parent="1">
          <mxGeometry x="758.6699999999998" y="39.14" width="77.34" height="66.72" as="geometry" />
        </mxCell>
        <mxCell id="3JcrbyyqUBlUs0YY1mea-38" value="" style="shape=image;verticalLabelPosition=bottom;labelBackgroundColor=default;verticalAlign=top;aspect=fixed;imageAspect=0;image=data:image/svg+xml,PHN2ZyB4bWxucz0iaHR0cDovL3d3dy53My5vcmcvMjAwMC9zdmciIHZpZXdCb3g9IjAgMCAzMiAzMiI+PHBhdGggZmlsbD0iIzAwNjVhOSIgZD0ibTI5LjAxIDUuMDMtNS43NjYtMi43NzZhMS43NDIgMS43NDIgMCAwIDAgLTEuOTg5LjMzOGwtMTguODc1IDE3LjIwOGExLjE2NiAxLjE2NiAwIDAgMCAtLjA4IDEuNjQ3Yy4wMjUuMDI3LjA1LjA1My4wNzcuMDc3bDEuNTQxIDEuNGExLjE2NSAxLjE2NSAwIDAgMCAxLjQ4OS4wNjZsMjIuNzM1LTE3LjI0YTEuMTU4IDEuMTU4IDAgMCAxIDEuODU4LjkyMnYtLjA2N2ExLjc0OCAxLjc0OCAwIDAgMCAtLjk5LTEuNTc1eiIvPjxwYXRoIGZpbGw9IiMwMDdhY2MiIGQ9Im0yOS4wMSAyNi45Ny01Ljc2NiAyLjc3N2ExLjc0NSAxLjc0NSAwIDAgMSAtMS45ODktLjMzOGwtMTguODc1LTE3LjIwOWExLjE2NiAxLjE2NiAwIDAgMSAtLjA4LTEuNjQ3Yy4wMjUtLjAyNy4wNS0uMDUzLjA3Ny0uMDc3bDEuNTQxLTEuNGExLjE2NSAxLjE2NSAwIDAgMSAxLjQ5Mi0uMDY2bDIyLjczMiAxNy4yNGExLjE1OCAxLjE1OCAwIDAgMCAxLjg1OC0uOTIydi4wNzJhMS43NDkgMS43NDkgMCAwIDEgLS45OSAxLjU3eiIvPjxwYXRoIGZpbGw9IiMxZjljZjAiIGQ9Im0yMy4yNDQgMjkuNzQ3YTEuNzQ1IDEuNzQ1IDAgMCAxIC0xLjk4OS0uMzM4IDEuMDI1IDEuMDI1IDAgMCAwIDEuNzQ1LS43MjV2LTI1LjM2OGExLjAyNCAxLjAyNCAwIDAgMCAtMS43NDktLjcyNCAxLjc0NCAxLjc0NCAwIDAgMSAxLjk4OS0uMzM5bDUuNzY1IDIuNzcyYTEuNzQ4IDEuNzQ4IDAgMCAxIC45OTUgMS41NzV2MTguOGExLjc0OCAxLjc0OCAwIDAgMSAtLjk5MSAxLjU3NnoiLz48L3N2Zz4=;" vertex="1" parent="1">
          <mxGeometry x="193" y="36.28" width="81" height="81" as="geometry" />
        </mxCell>
        <mxCell id="3JcrbyyqUBlUs0YY1mea-39" value="Initialise" style="text;html=1;align=center;verticalAlign=middle;resizable=0;points=[];autosize=1;strokeColor=none;fillColor=none;" vertex="1" parent="1">
          <mxGeometry x="60" y="-72" width="70" height="30" as="geometry" />
        </mxCell>
        <mxCell id="3JcrbyyqUBlUs0YY1mea-40" value="" style="shape=image;verticalLabelPosition=bottom;labelBackgroundColor=default;verticalAlign=top;aspect=fixed;imageAspect=0;image=data:image/webp,UklGRoRDAABXRUJQVlA4THhDAAAvz8KzAFVxg/9v2SVJyl2a5VmSneWaWdZd0u7u7u7u7j7u7tquM9M97e7uVu3u3lU9XdJSmfnUi8yqOvk81/3c15O7cIKtxa0Lh4M7nPXNNysjVTGTOFzs1OAH947ufLHuWhtwZuNGEqcliahkXq3vFjJy4zDamzhFRK9v1/orJNc380WOHFyLmFq87qVwElmX7kncHcZnLnxdEunCH5ya1Wvere/2rG8h67sdQy2uNeuJO+M1O4nDRbC+e5B1T9wdavDrLTaSRPTBGYmOWN/NV8iNdRycWvca1i2JxDnIunXvCapWEu/fRBSLJe489CSx7q4jNw6J9WTEdK9v4Tl4N+6SE6GJ9UwcWKnFuYIonFx36UTGcB0rgoPDq6azCRJ3qfW9cKj1RJph27Zh1P1/8SLbDNu2DWPLSv+/eOv/BAyu6f5P93+6/9P9n+7/dP+n+z/d/+n+T/d/uv/T/Z/u/3T/p/s/3f/p/k/3f7r/P7pnB/MG0zSsX4WVW8nBTz6EG0KVGlKHUmPKSlmt5DAyjHuLZxaVnMwYEyqlZuSzu5WsUsl1XZdzZYwQQpSNJuSD6kA6gJbSfrXvs0+v97MXr8TZk/Z09pDXQ+xur7tdjZzs6ep0bjnbi55jlvzMTg2KeWiqnlkIYYzi3HVdt8oh13W5MkYMrWIoxwf0+jv71F61J6/7ajGLWFxPd725vnTygXW424Jzi3FLyZabrcytLqw5rrVbl6w7rF82GL6RJ3VN66g/369w04/iAh/HG3vTL3Lgsz9t91c8vaIcC2r06PVyNuswoPJQNBfGKM5d162ix3W5Co0QQmXl96bd9ywatOr57P82QrbEbEVuHdkWyxWVHTV7bUdZj7CMupZ7HYdU1td8rV/Tre612Wm75fYSwgbcSuMSbyPkOrfMtlC26tLv2YkLUVWEirtulTeDn67LlRFDO1Nc+uzdy+tuygn7P0e8rdBtPFxOuap238vRXsstGP8VSISUJ+WI1npsOjZp0VZrrZn0KzHey+0/Nj1Q/x2Vyysby1YQR7oNlOv1tKAor7czM9c0EUZx1529ShnX5cpUFSqrWR1Zo89zqLjM3obDlpq9rodfT7BgPDKtdVetGYsQKaWPNPWllJIxrbtqrRnGY/n9R9m/13FlsJG6wmzoXEltZUGdPrz+PSWqGsVdt0oXlysjhMnqw1dD9qhf0hLc+srWmr0vx1kxrhGiW2jNpI8Y9CUrv+gWWmJcR9+/n2Vr7Xq7JcfBbj16QUZfv52GqEIYxd0qVVw+eDRCFOcXpoo6LTm3mbCt9hBreYpKynJEayYlCDjOIpnWXSUqfdj1V910WXI2yNkq6NGXXyyEUdyt0sTl3Iiy56Bn3zqdBS96JO/nu8JyoPVBoZJaaxYhIK5kWmuJSh5sufKyljqS60MtyG43iJZRYTh3qxhxeSiEm5+dmmphufWFHbRHX1Fx5EV3ZRECokumtUTFx96/Y7qRsOisrzNo1c/pChFyt4oQI8yJe9ZgnhHdDe8YRqOoWGstYZOyHNXlABUf9/VPeesLyXrxWdCztwA1wlTZ4XJlhNu3VyM1uLeabEvliCsq1ppFCGxWMq1R8ZFftzlW26mMotquMIq7VWS4XAmvdW+eBT37Fuo20e2jRcW1NIsQ2DXTGhV/oM2FhcdJLJg41xOKu1VcKOE1mDboy1tOdkXt1wQAvmYRApuXTPsAcBRypWU5t/ks6EUHOj2hqqwwXuvZ5HwrcH/1tQKA1hGCOFFqDQDH27/1sbJQN5ingWeqmDBv2Z3KgpLeyo7twugrALRlEYK4UjINAGO9XlVZufTjWTBxcZlqqoAY0omwW9BLbmlhS+0jAwDNEJcyXQEAjEl/gmVnLzro9jpEWGWD8c6dXbTQ3GWXoy0AIkQzxLFS+wCOQS+rXViuu71WpT3PVLEwRPT4i7bol7TesL8GADRD3BtpNAAckG4oDBKTvd25XlglgvEG+O2+zrSs7K7H4QegGeJkpgFg++2tN7V4pdUzVRp4YbNgoNtGukM3AJiWiKOlZgBuYJPdoM6CZtxTVQ6EZepX3pMvb/F160UD0BGCuFtqAHNtp11C1qonzS1TwyoDjNc41Xveaty+WgCMIU5nDMB+xprCHKnGnkn8GS8/GCS3ue6YCwAdIYjjpQYwKrnoMmgueGfGJPZmDSe1YPh4xSVCAKkR99eSQIXXKyt/gwVzhLMm7jzV+29qkfEqWwCMwREyBuBFLSZX9OyUl5jzVJtWyzp2wQDoCIFjlBrA7ptluRpNlZd489QkNW597xSAlnCUUgPYF6wga1XCU15izahJ8i6w9xWAlnCcEaoB7HusMPQQZ1MmcWZMo9RycvtaAcwPhzo/gH95+S6jj19jEmOh6ctnweJ0DysADQc7P4C9jCU6i7UzQ0niS4kOciG5HRYAteBwGYCdjoW7YHKhElxeVjBk3FYBoOGANYBtQhkns8rERJbn5vWjF1cA6PPAGWsAl1T6c3mul6hSpkuJ37V3x3oFWITAMUsGHJesJ+v57q7MW05Iif58Fiw1+woAFiFw1JIBB1mWebWgg0g8ea2DIc7tFMBncNzMB7aXzBq09hJLyjTt1bep7uoABkfOAPxFEzc1KoFU1jVOLut22AZgcOwMOHz+s8u6IlFkeF7/uW20gB8hcPDSB17SwK4GNwkh8c4y1p6NtR9gcPgMeBjrCa26icSPcYPh3Z4HwEABGfB9jXALBvVMgkd0y95oBkCCCkoJbLJkNxOJHFOcGiHupwUYqCEDDtCOHINik7ARJX3Zm+kAX4IiypcLbK607yYSMyYsGjrusz+gQRk1sK8xXCziJgHjZQbrqoCUoI6ywgtww0Gp00u0KK/zQN7OE4CBSjJgV+3Ad3WGrCqhYnKTy4tjroAEpZQSx19WmCVzTQJFdCtxu4wCMFBMBlxWOVPJs+yZKFFhjeHcAVeAgWoyYBS6wJgRqoSIyU2uMQA+qKcPfCHJ3FkTIGKW6ncIMFBQBlzZ6DnXTSQ8vB5yc3/RgAQVlcCBRplcPS+xodzkirITvcIHNfVRfv+KY9JVCQyvfw0utgAMFJUBF98GBV7CQkw68w4owEBVGbCTMWkzL0Hh9ZAb9nboFVKCskqJP274XLaXiFDKguVnGgwUtjxFhH8FnVQq4WBaW+T3ABioLAM23iVbmwSDVzfvDgEGSsuAU+fV9RIKk/Wlc+wagAgBtZXA7tfac4gEgldCh/QOsyKygOr6+OOGyrX0EgZeq4Vno7+CgfIyjMW/yKz76iUITLCcHsBAfRmwgiNpEgFqguTaA+CDAvvAOrokV9RPucnNB4CBCjNg8zXpKso3lLROXnoAJCixBC67taC1oXomK7WVBogQUGMJbBmKBjwNxQsLetQdDkCCIp9HYsejc0FI7by6JfJ238IHZfaxh7bpAk6P0n06/Xltfgr4oM4+9tH0fuvgUbmww1T7alH+BRSaYT900n69T4fCeflz7JeCgUozHABufD6Punn5Je8OvICBUjMcdJ1lPo+yeR36cAdccd2g1hUWjMJK3jp4VG2Gul2+dTBQ7OvGAfr3cfephBRthtJ3vfzuHcBAtRnupE1dQ83MAGf1vayINKDc8+KvbVhgKJkaSPN2OZAC9WbYzcjOUlRMtbbgKgt8UHAf2ytBa0XBlJtzxS3GaUDF58IZc1xFwXIeO84DSh6huNSSQ79MztMAIoSWSeAN5BjK5Vn4KQMS1FwCq6sW86iW1/njACQougSWJnU8iuW96Kf0muGDqvuI7B8h18VQK1M7a9QVPii7j9HWBn37DKVSWSXuDvQAA3VnOEg7z5mGqFRKuRb8wPBB4X3seA0Gc4pGhcl7hw8qX4HiMkJOSKG84OaBCKFzElhnCDzq5DVcfAZIUHoJLFEbGspk8l/b6AQ+qL2PMegg3gsyVEnl1jnACgaKz3Cgpv17VlQpubUCH1TfxzYghyZ5wYY6nAeUPxsbCYFHjbw2i3OApH0SeOklfB4lMpmTj0bhg/r7OO5rZqahQ26wuxUMCUCGPTUplwp5Fjw6+EgIPitcQkl6FMhruWwBIoQIF5yXMcaklA5LSlZJKQkggVu/fY/6mMy6Y+wHAwEZxiMrR7Rm0gFJpvX8EuORxR4YXmZBpqE9P0Cw2wEGQh7/dbTXY+0/Fh19GXs/xtXXTDoYqbVEpR/U8ejRXp/+YZdf5l8a+wVEZNhdG3DK6wWbzCBBQB9/9Yix7O0bLOG1nLJ3VyqnFpGtIK4/XCHsab1WVOxr5khYueXkqPiwdMftJZnVzCW7BekC4rQzFfboqzPJaYe/bUBIAIk/POlRHa93/UtABAl8GnlZuZzz4gaNZ2lTx4Kgz3N4b/XxGfz+qFgzZxEhTANArTfxJ9zl4Ld5kqkpm5X6zSrmr+N1KHfg33dmkUO2YCTAorLefz2Ko7K6HGVBBQICaux2rTGMhopzzlVohGhiijvMFNR7u6sP24WbBQDNHAPTAHBkeuprHiBmpHq961+5EMIYxSuphtXCTRRcd+zBx6PszZel6I2Xc0b4IKGPVXWdPZePq+u6XM0ghKo7U3B/S8uuoBx1PwCppQOQWgI41HLxdTHZJBb06g34a4QIOXddl4+rq17hEDkgQmIPPs6aU0aojVd9eRGQJJA44dJvroHi49d1eSi81n2cFtRccu4aLwxAsziPaQCjkssK39ztB+1cMZnirsvHtyf/T2gCRAhwlxN6lEY1nvxqFjCQUGPbrQUeT1OXK1P2dOcM+s6tKu6GAYgQFscxCeDHX1nWl7OgHReG8/o8LV3Rec0BPgHA8G1O31jRmVDuYICBkMvL2gxVZ0+TSk5gvAYfc2qBt8d+nP0AdITEZVIDuL2LG+e14Eyty1TDK6M694BunP2IEAKAYUetBSGVEYWr6RAhICLDmOQbHORX8cqqRDh5apZnvN8VgJZxl9QA9r+srps5mN4TilfeasEuHtAkgMTDricojGpc2jsLGBnGprgLCzxe2ef2cuv0EJcWd9EA0BESV0kNYNd0KdpDXueBvaEl5C6vvPVFnbU7+ERgOMHruV+hoi9hcvsFDGT0scqs5TSzVzbOladqJhcctz4AaBk3SQ1gW7DIW1CTe4pHYVh3RkCSAAxXDTkhdfEKVx4gQUYJDHI79+vg0WlM36cFw9+uFAHoCImLIlQD2EZZkEveuDE8Sk3GfhdoIkBilbHQoyyqcX9xdApGCI2/9kMaHrXG61eTza+kANBxkAaw1VJgQW3P8Gh1m6cupiMFw1PObBzSFS/nHwYDMTbXpcqqGzWcm6n7u5PDn78ugPnjHAbgqtuRM5nvGR69rmn32YCUDJ9RjqEq1d7zUh0QIaQAlnBrZ3hUf1OT5Vvsg+wIALA4RvrAHsYjsaC2MTyq1UR9u+sAI0OEAs/3rqrRlG+/5Q3AByEjBGO+1s6dILo4N6adxZbi9r0CvoxTJAMO/vqVpxoZw6PdC3YJ0GRA+RccYT1Ta4oigovq4IOUGrspFg7l8eg3pjftvr6Fo+0HWKz4kjGmtW7RooXWmo3X+bVu26JFV60ZY1LKGNHAGMt6XcMpleFR74oamyzEgI+LDUlBTcxzfJGAJMg7SDVxo4/zWVXhzFsIAFg0Scl0xQzRK7XWXTWTfjQxAKfs/5bnejwWzStbUgZIQkhg+PgcDS0Z8rRg9y0YiBkhWGbWyNSPBc69BoHZbgF8GQWS1dJaS4zX8zzGYywHX/ax7mq55Qc85yWXLXTf+1NcT1hbt0b3M6zBrTZbg7371de1zHXGDWY/72a7S+xOf+ptl521e2G3euT918EwnnVbrZmMAsmA3Y+Rb8n+tSOPTZVV+iz/gvJfCIHy/Ng9DYa8URKv59+VZCCoBAa7NQ55jCrRwYKlZ4daAVY5IiTSsLZaYtyPvuyf7mx81C2UtbmTfXPD5wY9+/Jm6tHLtniBBTlBUY167avfTC+/p2l6mtOUuKtep7BVRpCUMiOvsCet+RMNc/vql5Hd9NM46Vex93H45UQU4xohrIVmsnL4wLWu9mbh4xSKx6rJ298CTQoAK43vyaMiqkFveUdfwcjBcJjXCRWP3ddhmv5Mm2gBsDSRTGuGSo+5/1B0N/Ry2/VmJxsplvb60OykBd3X6m1uvJR2KuahMUKc97zDiBi/Zet5z3tmMasJJyjOKuWrXXPK7CCnxsTzDZ17jWvqtthdRXuA5btFpX2tWYSkifSBc+YXTmF4zLpVLdhKSxCGY5CaA1VFQ0RwMQU+yKmxgxIIN3Y491oXDXXbyQqw8RMhWvuo5FlGaf/hzY2VxAXmXmFekMrrkp9VHIqqQghjlOKcu5WTc85VaKYRQjQxPDfz/uqkUql2ZW9Ldjd6yr3QUV/HIZWUWrPxw4Cv4F+waCePx7Ar2q+nIwh8XLwEgoIMmfV7V+YEJEHa4vMrii3ORT++1CqymwXYuDGtUcnRyJ7ayy1PeiHaT8y2oKhLv/pclRBCGKW4W0ketW7F9WdUoRFCmOLMH7IwyJtz2NzywubKTsazRyWZZhEyLhLAZqTznJ7iMW3ub4kOkhwSKJvrx5ubfhgL/kcwELQ84LE0jDVuwjq/7ZW2gB8hgNQaFY/N/zNffrPGbITbr50Kpqyd+9BFk2mM4q7rujymXdflKjSiiSnOnDYv2WaKCz26PSyj7UfFWjMJMGC3bOhcUFyNx3hYMCMgiQGG+7KooR7Vrn0JEZAEkcCCNX9uHvNeJwuWejvSfqDFyQFgzGVX9GLlNQ7gMlIzTV48a1VhFHddlxPUdTkPJxOClz4nKQpK6kLjNW13O9qKinWEIrI8xNRzFDz23ZbvF4wcEQIsMetSjXaojP2t0CDKXKViloo9rqo1vb9zAmB7HJuuj752KtUoywhh1OCn63Iy13c5D4XwfsXa9Sw220i5dYXtwW0C2A0MlWVwwwlosve2QJMDGvsf3VdFObzC1QjIyvDLdOEzEoBzbyDNubHLLMubBUFeu1zT3Cjuupz0rsuVEcLNn86CRm/wT9hQSD1HwUnoimCbLVoQBMBNF3p0I7fL0Vswomi86tQ09YnAQ3OfdXo7s4wwirsut02XcyNEcbfp2riGk+FGgosZZGE4Jundy6UaIrWJAB9E7YpbzmnikoFzI4TiLrdflysjBCekK57ezwpGEkQW/OFFHsVQWZOfYD8YWTQuoysSxOCuy23b5cQwD2m5N0QIUebFCfdnFoT0wgsuruK6QZqNdfUI4ghN7TcIwl43HnnQkVqEC/AGvs0FSZwXWJ0uhJlD5wCfKBKYqG5IKzpacLkdGAjLsLyjDV1QnQbOq8CPCCEKGK6wWLQjpQj7jR0BSRpgSdrM0IXczNFfwcgigUedH9KJjskz4tGAsD6wyKykZzhVKL7PY+8nDTTeUtKjEmFmmROQpJHAyC6fLnA+yZEocSRQtT9vbhpR1iXPBQYCPc9MyqB6yh1+JQ40zpicmkKEmT8mIEk07JkZ0oUw+zALeSTQcfqQPnS04IpSMJBoWEcd6h1mJQ8YTh10pA5h6d+PH4QazmXOQBmyb4VAEvgBSvlC2iCCSw5gINIIt359hi6o278BAoHh0ooFgjKoAc9SeSciiBAyvel+PMrApz0qJZFEi/sdwFN0oXnqDYCBTIvKdaMLqvihH4eQCAxPNdWcLuT2kTvOQiZILDX27jODKVUYSNuPRXE6Io36OkcuVfB69B7fOESCyAwrznq5E1RhSFfaGzQHSAJB4kur59EE3qM+a2gyadxoHbpg+r33lACfRBqHXOtximj+hmU4kFrj4kL3lSq4pt0SIoi9bNfG0APPgl200MS68lZWpQqi6S2BkUljN0lQ5qQGYf7bACKEWC8t2YQutHqK0GSSwL//zgwtEBZcXoUGsQ6y3r7iNKF58pxoQSZonEt6lEA1mP6Er4gQUs2L2+lbcxVNMEVfIDShJMrvL+06KTrgZa8zgw9S3zFQ5naGkCJwlX2oFYxQ8LFeyRZ0IOxubxSAJhYiFFfbx81QBJVbyt0jJKk0DkpbcSpomi3+BpJrbMzmCJcemIe+iAhyAZi2maEBngVbH9BE21aRFMEV1b8Q1AKxNX576VEA1WmgW4AIIdpBIM9wimCxy2uhySWBgc9OUzg/kX27YCC4BAbOFShqwE13uw9EMjDcd7ZwfmHe/ltokkHiL35Ipj4tUFmlz/IvYATTONCS9zocn3kCC4kgvMYPbmETamAafQqAJBiARdy6GafnBZc5oEm3zzVjKOGU0BWpRwcNkmuc3gLP4anWfbp/B4xsEQI814IhPErATdG+KeEYrobeZ2vl6GafZpIVHiC+j5W7Ep5w6UBYcEeAJBqAFXVNhevkuGfBdgGadOUWbLuVHqeCrqizlgAfZNfYXht43MmrBq+wBSKEdAyfXcnYWlEB7lmwc4OuhIsQlHstHTspB+eKCW8aPogvcWPzdKQCUxR8GEASDj7WKJ2F69y4F+yyhSafxo5GnqEBrqizQQED6TV2swQed+5DuoJiQNrBz/5Du4oKFO5iQBNPAj9A/7+hY3NFj97jAwPxJfAMa4acBoZTfxajEfikA8M6u2xR36lxL9jVCk0+YD02GXI6GM7zr80Fn3Qa/2eqGnfqquBLAiTxJP5wi8zAaaHXfd+yb4AknAQmKnhDDs0VM909fJDex2dlgcvpoZfckID4Pv7TzsJ1ZtyTOy7QpKuw4HC0ZoGiCFzlvAj4hNN4aYHHnbn6kl7h2K+IEMJJvI9hcs08ThVy6xxgPxjZJPz+vSzlyFxxVysSzAWyS2DlNk9wumj6/R0o7xsCIxpOjrtrKlwnxoUFZ4UmnI9z5XwWnDaK9qcCIoRoXfEiAsEdudvmywQjm49DLj35chV14F7y8hA+0RiO8fo3uI7M3OeiIiCJJoEF3eYwnD6q3PYHW+GTTALfXDvjwNyhb6mL7qBBuI10geA00jT7vAFJMGhcfEg1qe+8uMl4bIRjuJMMTimFBe8APtl+5jzFnfcUBV8NECEkk8B76mYoBS8uHOUNFRqCSWCw2Dh0XK44zcozRBaQ3MenbYHgtNLc30JvQISQC88Kq3anEa7jqmrBlbXQJJsfh1uy/wxOL0XynGAE09gSBFVnd1pc9ZR3+P1gJAO+2KbVKIbq1M/teASMXAxHpD37XO60zW+7oBOIEIIxbL+1wHCa6Z1v9RnIPmIu3zgsVxS+L2iQO0KAKTrQDa6K/lVocmm8ykLhOisugleCtgRjuDULBKebpsudgeBd8bNIwR22O8+RCRi5GH720q5AUQ5ukrsc0MRi+HUmcR3W3P15C1QgQki26a5IcOpR8u4NApJUEhghfgbGUblipjVl8EFshjGWbgP6FPXgJrm9Ak0qaKzNdhauo2piwdYbaJJtvqQ6cgpyn58jECGkKrfgJSXLeoM7J/VPqOoXJBjD2ORmBjiHPCkINxbsfECTiuHXaMgdtSoY7AZECMEee+BxKjLzYnMgtgSGuJX2Qgflii4XgASpJTBjZkhF+AypO4EmFCRWmPXqCddJdbd7B2hBLI2rGkmP09Gyt+zVBkhStcXnmXJS3Av+MGhiAUusD95QEt66Dz3OKxihNPbYWuBx56yK+8z7R8FIpfFztAo5LS1Tg4cGTSiGOy/p5SrnZPrVtwFyXzfWJ60ENQk73AgQIWQC8O/nv2/H5IrZHgskqSTwZ+SF1IR7wZ5XaEIxvIWmwnVOFjwftCCVxhOSHqemrqiz5g4+oVrgMkQ2cUzcpHbdQpPKx8rsmaaZnZpw1enhdEWEkEljdzTDcMfsznbM/WCEijR4yrUH+VGconoWXCM0mRjuoYvrmMLMGwEihFBtcRcWeJyiumLKJw2fTBECDH/LNA7JFS/6L4YPQj8rPOaWwqUo/HX0rwPmAEkk+DhZG+E6pR5y/wk0oSRkp06KU1WT2m0LTSaNTXQ9RMfUxIKtDGJpvGvpcarqiuz1BXJtsySdEjcZ+1wIttHQ3Z5wqQo3+SMpMM5CqMfWfTXcGavidqO+jkMYmSIE+OprG05Z3UmOuh+MSAwX7lasnFFYyqsGSDIxvKo5ixVtERZsc6AtkSIEGPaWOYMjevxD+eZcloM8D5k0rjEQnLK6YsL/FD6RIHGBmsJ1Qq6ot84CDVKtv8sWLmXhJv8pAZJIGjec55SKHiqxgMXFSQ2nraq42bEXMEJ98CKnFOyokEqi3Evp2/Up6sLLumC3BZpQO28tcEbc1DgIJRXD/kee4tTVFUUXZ9CVUIckrYao3Amr3PmOu4KRqS1OLZu7FKaXc8UZIoRIDN/m9LnKCYWN3y4gyVSOYIM1W9AXHv5+zxOQJJLAo86c2wmZWc4BUkssPTYynL6q3H7dWcgEYLGunanvfFxxVyuNkGSSwH+dGVIYriY88ApNJIbVhKbCdUKtNip4NGRi+EfbFU9AYVxhkQ9HKI1NSY2qTuhGkmdDCzJpHHAJDKcyRc+HUC1wecOC5k5IFG2/gSbVjmggXCrTed0doTQ+wdTUDoiH2fuk5PolU5SmzfIcygORGPZH683NHbCa8Ij5wcjUFhsreVVpDDe1v3ogQsh01Ob2uQNWxTVHfyUVw6piS0FlVMFgOUKdDr/XfeYqB/RhnknkFZJMwNJdI0Nnct/Z8QmZJDD42dgBmff+ewI+kXxgEa624XS25e8GRqiRY75xPK5p9tJBaAk0Kf0b0pmw/a2QCRJLis2M63hEm2sGI1b/eZ0UnXnfhR8Imki1cNu9/goHVP1XgCbVWebLpTOP32TsihJKYx1hJifUQ95GW1IxHHfpNhGdcUVqhy2xNjmynVDexWXkOvbaZyymNRZsG9CVUM8nwwkFl1/IdbT9M1Ob4EWgBaGuZEgH1CS5LSDXEejEnNbIByRUV2yvyWnufJrn7AzQlVSHoU05nXXPLK/cEEpjt4kUzqespPZEoYl1V7SmbJVXvhLrvyky3PGaVm+CXDfQhk9AZ4TcSiHW/ul0ofMJC0dZyXXEZWKuKE3wWgg1P551iTvugHtxh1rBSHWk1969wX+pzTYL2hKJ4QbaOB/1yU91JEKuf6hRMbW5igJNqKO/9hGLleMpvs9jE3KN+tqX755oTWqHK7Eu/A1O5Hxyv8HrINft9ONyKY0p2gUQKkJwAvJWch1QPzoWwenIJNG2QwM6w03eHhZijf3Sn9fAAeUf/w2SVHizA3qUZu5W+xjEiuwr5Tmg59rhHgk2aDwtpQkL/ywwQqGuA2qQWf6VYMPfMmegMxNM+I2Rq7ETqguCLfz2goZSOsOn/HrJ1b9exAGV9kj2J7YzLo1Rxff5i5Arq5MDqkssSFyojaAznXIjCySp3pUTeovvg1gaz7gznQkzHzbI1b8bwOeAJiv/QqwW2HDtvlalMqb2vRGscQPn81w7jL0Qq9yCP8HiBI1xTc2l5CBBqroOKPetnJCfWBpbWi2kM6LhKjNoUkX2T+aEan92YMTaOQSUZrpXQ64T7n8ruc6n+D5fCsF+bwsMpzIZlxpIxXDhkudEDmjm508shiO+numfoDJNcr52dCXVMV/7zBU7Hs7f8+EIwY6/nLuBojD1hdzjCk2qo+yfygGp6gcfqEWoCAGGuZXSkMJw/pEP1YCR6teYjTtfU+95QxMKwGJ1UkNhVO4sTxmSTBq3OmHoeFyT2ktCLoabbipc+hKWju8OuGNSvdQaxvlUzdnFgrak0vhmg+YUxrT71IEIJdVuqAXCdTzDnDm3jK6kaoGfwGKCvrii841Bg8xdsYM2p7nzOYc8KzSpNF51DcMpTOodoC2hNLbeyjM7H1F0KR25GG6zqUtjgqsY0MT64IFwQPU21ZIrQoAhYuOQunCTGuWVYL9VnhOqvjYhFySW5OYw1EXlTj46ASPWurs6Tuh5XgiMWBoPoo5waYt578M7QBKqFj7amRyQeaafAiTBzmVBVdriit7OFXeIEBBa4p3WNI6Hm368hw9Icv03H9Jw2tI8+M7QlVASWHiutuGOV51YEYzhkU1arGiLSD0hjP1KrjJe49ABFc/yxYORSgIj3DqElIUP8Vv9bYERqjzgRPv7jbnK+XBe/agrueDjZ5hJuHQlfIVVAUkohmPShtwJh/X230ITqyvOGVAWV/T2eyH4IHQt3Gr70AG51Yp+fIJpfKCU4ZQl9dihSaXxuxcZ1wE1T54SLYg1L8q9njhLURVeLfUkydUCp042d0IiYzMFmliYC8+3kaEqKrc/70Qryn+QSuMRZ1R1RE0/Ihi52uKiQ0q4FGV202iJEeRmWHPWUjggbuZYQg6SXBp7bgPDKapbNbX5AE0siaX0ZjbcAYeZ5wUksSTYz5ilKAqvFuwFyCWBF9k1dELqub7Cnxu3QCycHGfvIlx6orJOXP4FklQMv9fDGUiVE+Iq+zAEjFzlFpw0oCiumPZkkCDXtUyouBN2RbBbgCZXLRzqdSbF6amw4EoCNLE09tgGwnVGFl5JS7IIAX7P+Qw9cee5ZzCCnbrIKeVtuKAruaBxbXnCpSXmof8qgCRWV2xM8pzR7NP0mre8HiTRHm0q5JS0fpPUxQZoEFviLnu7OSMeZn6jgCSXBLy6ISXhqvDgBIxYElhg7vcLuSNWuf3oF08y+Fh/yBaUZO7nOJIDJMF+2fxc5Yz4FBP+WdAE09hXmxFSEpG62A4axNY4eDOl4s7YFcn/kGgS+Ec6hHSEtzz8KxjJrnpYIFynlLcFRzRofNmpMpWKmPtbgoLkGhdV8pzTbBeCTzKGn/g0rqIhZbPkljZ0JZiPUzV1Stzkj+iACCEYgPuoaSiIavAKW2BeckngIeUb7pDVoL+TjrGAkUzjKiHpUZCO9dZW4YPcp8MY643nKqfETY1HC00yCbyhUl5IP3j2gVcwgmk82RqGO2VXJK+gRQuSgeGit2BooR6m5r8HorfAKZPCdU7Vfzgwwv0oc+ZSDy+5/QFNMoZ32/Ovc+Km9sJuILzEWkOhRzlM/vA3QJIMWFisbbhjVrnTj/UCRjSNU/R045RTJO8QGgRn+C6mz1XOiZvUPh/QRIPESkJLj2oMeZ7hKwckyTT2CSnDnbMrUpfVkY7hzWRzqtnRgrOBgWwfPCVcJ1V9VTv4ZMNcONWUHsUI6w5yA+F8PNCUToqbzOE8IELINj8OsdRzKYaw4EOBgeQRAgwbM+fmDlq5094eGNkgsYZY6FELk18VkERjeOHTujM6KVdY8BCgCcfwfqfNpRZe8lGBgegaP60U9Z1V9gYd8RAhuKFAUAqv0ccMSNKtv2YL10lx07dbRA6QxPtKBvZeoaITvOj/gAbRJbCo22dguLNuXdK7DuKB4aqaZDUq0TFvbRHjNCDdB+wrtuYO2wS7WKFJB+A+mnoUQjV+hSfcD0Y4jZ2vgXFYrsh4GjbAcKR1klxFH7zk1w4G4m3MdrcnXGfFTe1fHDbo46aSHnXwqp8MkKQDvvrahjts1brZqAsY8STw/t+zRxlUp4f+8YCB8Az3MGexclq8rAvePDTx4OM/r5ml6EKY3G4LBtJrPAQLBHfarii8G5yEfPCx5WKRkCqIvNVlsMEKDR5EHeE6LT53h+EUiBDyAVhtlicogpmlzK38CyTxJDCMywy581Z1LghtAxKo2pfnUQOV2/6ZwQfxNQ72Wkdx5+02CS532AJ8HILOk6VoQZhzVviwg5MGVes7MNGbnh326OPDJSegBJ4FNwybXNa1j9+yMrvz4qrBj/sXgNkB5sIWQ46hAqLOkjogQmyAYYzXbzCXO3LPgh0OdLWFCAGetIUeBfB69w2dPX/4sEGN7dPAc2SuqPNK4dsC5gWW6Dp7ji/Mn/yor/Bhhz7W2E0oXCfGwwX4ZgSkLcBH+dcFxTbC4Zm6XZ4ZfNihBB5//xpyZ25Sny60PaDCggsPdevdm8zRmYI6e6LwYYsae2ktznCHLlptJNgGGI71OqirKRycuUirXa6owA+72MDsIQqnFna4H0DaBJJ44XdUUzg2U9Cje2vwYY8SuJEOoVPjYd7+V9SyC5wEL2XIs43n0LxXONOuBiILbFJjf233XcgduyjabIC2DZR/waivC/I6e47Mqz3z3tZxiA/72GRXQzi3sMM/AkSobYBBL/5WZByYV/PcbwYMdimBYbP+vNC58TBjvwPaPjAd8JhzlHJaXr23cawV1w3b1Ph3MkLu4EX39fewFfjApjqLNjCOSqnkrftIwT4ZWmYLJxcu4LcqIG0EEtj2KHGWjMJBeVkW/CeAD/uMEGCos27o5HhYtCeAthNIYJQxaz1POaUn16zL3wMw2KjG7lYLPe7oRZ21RPi2Alw3xn45VU6u54hUmBohHpICEnbqY/Wxs3AdnepUWl8upL2AAefsKe+v8ByQaGyx5wH4sFWGE72Uig0Ud/aeBY8K2mbAgIPC3QbFxuGosLB07kUB08FeNX416XGHL6ZdjiBC7AbwgU2H9vfnKScjXqEFq8iO9wJECGz25HiNL3oyp8d/8zZHXcBsB+UAeJ/XlbyI51iquamB4y0DDHbL8Oxbutzxd0z9t9D2A+kDZ+s7FirjSIzpkr3ueUICMNiuxua7lHB+YYdfGJD2A/jAMdfVdK0aGeM4lJg8uYTssQEM9iuBsrfM0PlxL/i0oO0IkgFvfzHOgn7uymQzOAolCmTzbbWAHyGwYY1PNPA4DWi48gPSlgAG4Cra4U8L3opnHMND79i/F3wvly4AGGz5feBCvf4aGsCLe3cvEcyegPkBbBmmlv2qZxxBOHXj4MTv4JcFNOyZ4WhkkuIZqUCZmvpvoWMgQuatpdtqrXW5RTMZO5AawFmHzSWbhV7cZ7y3EgwU/9sxKcAkbOuGUmUqp4JhZpkTiJAok1pjvEutZYwA8uUC2F7y6FMlfMVeGMepjmGfv8Gwtw/OACZh1xIYPNc4pAPcs+DPho4uHwDG2n+wdfewg7GN9tRbKtsYT+FO/iFU7OsIiQ1AagB7WVZq5/mQdb1qcdns3Hidslv9qB8DACZh3xo/dvLJcUpoai45IrrnAnZeHt9It9dU4teCnKSUyZy8OYuXJRcte08AQEdIbABSA/jjPu0hcha0eXBVTdxlqvI+z+S5b/dHAKAjBPa+eNfM0AIe9pCNskBHE573/57sIW++XCWan1mc48xVTXHBtadSg97W0O1+AGAyNgBoANjZcoHZghvnwsRRoQj70VT7JcmTev4AtISta+y/yQs5NfTqrPmAjB6Gw9LCmkIYxd1KcxUaYQo6F43gXv6JXgEWKwBjAH6dywiLdnWKnqMSZkbuxjku50aoDnl5I9zewSkAMA27l1ht1tmjByp3jjsHixqNDUgwnHKXj0+XhyLsx7Ng4PPWALBYASJEA8Dp/vkRc3WCSQdRIYZ03I1bXK6EcGdJZQ/jfo9XDwBawvYZXkrNYkUPuJfaQoiqr6OzcHmamqlLnxbc0nY6wI8ZAEwDwC/xfB79kwh69hUYYRR33TijvsuVEabg+oMpn+Vn/eoBQDPEgwybKimPU8Qp+r8bIHfHiJDo2fLIETytvynRIXm1nwQgYweQTAPAgzzrarJ3VyN17VmmuQm568YJrsuVaWJy+9IPmRpIL3SF7bMHAK0l4kKJ51/a66RoAhcWnBI6WiIEJ/80+vNMWnE+w6w3c+NPCvBjCIBkGhX/9l/DMty7Kkp1KVBCGMVd19ZclysjhDpto1TRi19c7hG/VFSsa0nEixpns0BwqhjmD+MBERIlqLBgRyNHpR3n3kVyVpldHfyYqphpHwBe7o9/7ytwg+TqpbJrX98UTYQJOXfd+jYzu+tyHhpRVeXWLgyyJ1pqvPjyiM4CAFIzifhRAr9rZkgXuJfc7oCOFkhsussxlYEr0339Rm8FMtYASK0lKj4U3XZZX/hLutZLZk/V2DVCmLkVd13XJZ7rui5XMxjR3LiNp+ohz4Lsrr/fjb7YD/aVoGKtIwTxpcbWiwUep4ym9oIViJDowbvNMSrtOBfNeo+fBwgpdblFouKf/dVvq/y8S3NTNM2zILvRW2mghKgqTEi00AghhMnNbFQvmTHb61hKfI9bb179L4uKI0RribhTAiN4tQ1t4MaCnbTQ0YIIAW43xzWVgXsFGVe+AZIEFUumNSp97NdXfaVjg93S4gcY8My2IJXX8IV+/g1cYrkNGteeJC8VZNzisPE+NtQ9g93Trw2V1rpWhCAu1dj+SBpOH5r9IIhiCTyfVKaoDNy0zrkkASQhKpZSay1R6RO8Hpruqjn9hrtV7t7/eUUusXLf4tyLcCuZGw6Xt+16XPCNo9JSay0l4tiFZfdJIfjcwW4GdNRAAn9T3ZlClXZcuTkXWwBJjkpLpltoiXF/0vmGUCb/tWPcpW6hmUR8q7FTsMBwCmlm/uaACIkaQGLU15MlG4u040rlXEw3DiG0lEzr7xP49Xr0FCd2+3V2wPep9fxMIg6WwCJvk1IJboLPAzqKwIBtbAVFrU2acaVyzoYKL0SqWAKrDsmQkzvMWUsHSMTJGv+rBYbTiR9yURkQIVEEBhx//38yT00vzbhyk58RJKmA9XXJyTjJTc61IV6WwKfTjlJwY8FOKXQ0AQw4xP7FZimu0oqr91zjmx6HVCBkiiw4W47hZFc5d4h54yONHbXScFrR97kQB0RIVEH6wBcbNBiiphU3ddsdaYFPIoY9tqliTrrWqb0NsHhIAiPkalMLbpLfLmpFF/DbAdsZ7QtMWnHvmS7QAZI8DO+4caYhHTf5A+b9BWBxEMOvmzScXkz+uQMyyiCBXdGGdcO04mW1+7rKAEjSSOBkPfoEJ78oXLEDZNwjAdPhfdMLLpJXsIFFG+DjVd9VgUkrbnKuoINPGoZ/OMfjdvgfJd8NWNzDcHoLBKeYUzzdgc4K+8GiDuVfsPu2MEullcqd96ALfLIwfBdvZYB/yhZUaS3lneAFLM5hGPuldK5A0Qwugs0KIiT64GOHbVA8Yxpx0+xvACRRJF573tTcHsWH/EEg4xwfm+gsFJxqqoFzNR8kWPTBx0lzHnpacRH8X/BJwvBL5LncLt32h1rB4hqGL7PXXOsZ6Qb3ClfXIRalxHpjyksrXtzq54BPEGD52TyebXjVVxIwV1wDfEWFHqedqsb+F5Qj0QcJPPqGXlqZ+7suQBJD4/xFitunyj7wCh3HaOy7zVCceppGi3HAXNEHH39oaS/TpBH3LLjsBBX4iREhWElWwvNsxJtypR1k/CKBRerMhn5wk7OtAhYDYHiSGcVpxRs8ic8SPiEYDr/25HFbHdQ3z1FWsLiF4dfNMZyG1J1oLrAYAMNFBwu8tPI+8tUCEUKGCgs2LN3X5rbi5X1V8OMVhl+/Qd25aQjvWLTJAD8WJPB62nhpxKtZ9IPDJ4LEXJ06KVt5HaV9A0ZAxik+NlpTHTkdfXA95k4BPwbg4+jkSXxJKo3UwFrnWeO6SaDxeC3wuL16wfZX6PjExyGgzmAnp6Rel6U4IEJiAD7OmGPSiJuS53A5QBIAWHbs1TM2Yya5McSnEvjOu3i0hJvktgZYLEhgWW4eL4142TP7tgEZcwwXbtda2YxqPekfChaPMGyrscBwajrkrbQOeHurYDEAhmO8/pkNVBrxMmfOnwA/5jR+Xelxu/XktUHHIQwnpKW9xt3oCe/YfV1rRITEAirw4/QW9dKKu6mbgx9rPp5hU+HajCvmWWmFH4dIvNK8joMrVU3teYDFggQWeWvkpZVqkL2nBSy2JPC3D/iruN2q/n1ZJ4eMOxjefTAFp6qmpO8XBmQM4CQ4AM3jaW7qznmrYDGlsdc2Zbj9mqJ/BzrekMC/9RwNXeFlNdhMBz8W4OPt5HlpxcMON35+sNj6E1JVXdtxq6YuvkPXeMPHZiQQnLYWZ39YTBcLDCfcXyoWqLTiXv6kzxt+DEksK/bxa2a3nfplpcvVQsYZvx3O391eMaeupk/fvw/IGADDFXZJkWY87NBr3s4HIGNFAvdUMAW33zdUMLAHyLhCAn/Dn2noCxfB9w0/FiQwks5i0oyHBRlXUgA/RjSeTHvFbXhGNdMhV+i4wsc3GwhOY4sLR9kPPwagscs2qAzctLbgLQAniZX3GgjXhlyR3A7EFz4+n+xiTmVNSf1HgAiJAQBLd9OatONKBYvKHYUALDY2F4qq2lPeh4srJPDZdDN0hovgKcaGxquvoSoD517Nkt5HBXwZdXJsgh+nhAp7uqsLwY8rXnogOLVN7akBiwEAK85aepWDe50sslx3zwCTURVpNIBFunzD7dj0440cARk3MOxppDi9NfmtHxRkDDAclGbzyqu+gaYT/1a/PsBYtEh9xwD2MFa+y+f2rJ5JKXeP8YNEOf4Hl2/oDe9Y76MBMvogcdsNvcrCuTfIb9HMtyYBqWXlY9oHcLz1GSz8VvQ8i22K8+ovHCxOkMAq6/kEp7llzpyzwo8Bjc8nT1UmrjqewYI7utNjvALwdXlIuwiNNFoDwGve2VjlfGcW6xZ63K7D870J6DjBx1ZHMuRUV2W1uQH40Qdgma5XX7XKxHnoNU7d+Grq746KtdYRUuFlnGU8+ZJprVHxv/Reb+ldBS0beEMpt21XpH7aeMHH27r2LEV3uHd/TxOQ0adx9YFX2TgPy9SJqgfhOuKOylgLKs302KSr1l3baoZx/eI/yYuTpdxqBy0v4gnFbdxtnjwnWsQFEQIs1M3pcdrrFa0rIgYlMPytQ1j5OFfCq9s+Nd9P9db/gKf9cWL8HnX/num5vodFu368jFSfd7meUNzltjaMCx4ddJywvi7wOP0Nc+4CftRB4xK6wIsG7vJQeLmT9pCXnPCtNF+q+5TX3f3Kj+75XEp4dJuTG15dvPWRbqedKhVM2C3XNDGKu9zmXZG9UYkPfNxr8g1xCqyyan5j8KOO4Zj7e/stHjxGA+fc5cqIslHllvLmaJhdo6ioqKhGq495zvwBz2LTRBjF3frc/l0x5X8KFgf4uMk+Yv+qaBD37u+LBGS0QWKF8SPPOnt0VOy6XIVGiHOIiqsKY5TirsvjRLesdHmGkPYngZ+tpsfpsJfxIhH9Gu83MDza3fHK48r65tpPFg+cB2uTlMdp8Qw5l99CRhuAxcU5vWiLX02jq40DGL7m5FA3To0nuKfu9r5TsGjT+NMsMI5hjj8Rvt0xvPrOuYoecTN93dEo/CgDsJRcl2pOod3ibrB7H6OTi+QbTpO9Nr84ECFRpnGQpdW7cwo3/v7tTgKLdw09Tpe9oq8DkNGFyIINhJRwCotVm5PA1xN4nDab5L3DjzKJZzXY7a0Yh7C4zOaeFf4Di4ScPrvBG4EfXfDxIwbcGdznPPbm40tJ3dOMFEpl9XIedAWLLkj8XcmpHUG7/87WGA5L+vAKDKfRpvZru3P40YYlxwkF7fHxMIY823mcTotp3zTgRxV8fPFqDs8JLCHamATeYUPBabWXfXZARhUYDr+UdLfoxX+TTotxGruSwCqyIo/Tay94HoCMKvg4YP/ezum9+O/fwwXtCth4SBpOs03y4jpEu48n24c+Nc8BSJvycdIcxen2EJJzxQPPKrrA8BEWcKv55OK8OZZ8sysf22ktcGmXGkSD7RVU4I8u+PgyF5R1Xz0V3/2JNsWwu7aHrIHitFs1KPyBwKILPiosK8lZNNeL6+7Pnnycv02B4fTb/NATH6CFH12YDjhbT95UnorjPg5b8nFo+FTyPU7Dw1vs+98nCz+6IIGDrYu85WR1jNua2RLDUelpa3ucjnu1z3DkBieJLsAH7n2WPNeL0/o8lxptiOG49O5m9jgt99q1PsZ+VOCPMvjAsZa1hIZ1XE/REYb/YdjbxIbT88kazf4SwaIMkgGHbm6p6fleW5lq4q+Z/y/bmQ4nXEa8NSyrnKabmjOMRsCiDGASOMzrDf+4wZ/JheHcjTrXSTGM/brgrKHH6bqZeOjzuPvBog1gEvg2n8Gib+1T/fy6QoTcdaPEdV2ujBDOiaHC/oXVzh6n7aK3u1mP/Ypk1AGsAgFw8Nc7/VmnDGY7gxLCqAncitPErZhzFRohxBA1q3YJr2lr+2p0H/bCcKJlYWdPPo/T98letLoFnCT6AFaOAMCzv7Kxkux19Pwb1Ju0gIvmQhgTKjWelJrbGCFEc8NzS3mN6mUEeQUPf21u02F6h8RwAjrybUKP03gx1YM72n74MQBIplHxk9lquaY7y53EAplXvWbt0r9ZxZyHleS8OLdT5iw1z9RDXlFOarZ31vw+1pFd0thJc8j1TwbKrbNNYF9XaycMY+1fUK6hx+m8mXnA8/MAiwUAknWVqOSzfwhbXbcgq67/1yLc0Frau895qrcvbN++sE7nltO+s1/xY3nUN77SbIPdpbeP95/7S/8CVNrHtdThTsjHq3rSk3ic1nt9af5DQWSJjYol0xrjUf8/P9h3eMGDvh58fXlv5IK/9Uv5P/6CCMV41lrPLxmOvE5pX3Mux9kHw+3xXvM8Tu+9/Kl+CvgxU3EgmdZ6fom0lLW07qqZ9FFJhidpZxewjevGofd3mllwmj9krVvC+4ZBRCklG8/zSikxfhmeZHX7uvaT2YWP/bf9aG3D6X54kYwnBcjYi0aGT8LGuiw/2oMEdjne8+Qep/2mtUUvxQLM0cxuulyzLUhg26OHWBBy+q/cnP8E8O3g6uxrmi4XsoN5gUsfFjQwPBGolFxZBjA7mMmu6k/TZSXRBnxgIyXHVTxBaDIWrb8IGPm+Ettyy8qrXWkgHwNWIckpFE8Yeg29nwc+8b70hrYlXu1HI16FBf/DYm8ZhicSxaQlz3cNSMLdQkv7uqtVBNLl4ZOdoqHHE4te3e52TwzwyfZSbKzpj4PyQDIJfKIz36fhiUbTOrlBARjRjr3a2aoiGMF84KQZBR5PPCplsccx5isYyY79amerFZIxYO1iwT0ZnpD0er6b/UAUiBByjUamtLHVZgS7brzxdxjMrXiCcrKS3rSfEVCBEOtq1nns6zQPm1gS2Nc6UGzo8cSlybJg/R1Qi1QfdhIbW/0klQ9cgRTmlzl5IlOp4B1+vYgQSabRybTFtnUza+wI5QNrCsnWhic4vXlOvNsGYEQag9QsnsCupnzGRJLA4cg/UzS34glPLzP1AwOaRP9Do2JlV9VfKYmmA7bdzFzT44lQwy1YirtZRIgkz2O8cRtbmxDIB9ZTLLiIxxOkXsPS5/sDGGFOh+9illzbmmntHXEYcKj9C3YZoeIJU6+UL7W+DPAjhCjz4gSkn2hfT28dHWkYcEXlw3x5Hk+kKhWMdPsIACOJxJfRb7SvOusWskiJ/+fuchpU4wnWJ9fsTJdSAJ8oP3umffXoracjCgM+j6+mMFQ84TprbvKHO9IKMIKMzf9mG9hW4VsgiJTAfQf9eYInYpXXZo63BPjk+K9PbGMbEHIwYO/NByjihidovQFPC5YZHyXASMF+oizbqvdZY34ySAlsvNTrJnjiVnm9/DzOFwz4kgz+QO5MtpW9oQ6aCAzYO/0JA254QtfrZMHScod9BTQRTj6w18m+XhIRGBB5fend126CJ3rVrE0/zCUYAIwAGCRnYxsLBJAMeNCm6N0ZngD2JrJg5PidAixCYs+1r1ZPI/ZqAV/vartUf7+CJ4ZV2Vtfd3lr6a7mFdAxp0p7r8Ouuq+bqLE2b4UX4Bl0LXwdhieMDT9fqXhlBQCLMVNaQ7vqbvdpx5ZkwL7XJ2xBJ48nlMu6ArnYuK/+AIuQmMq3r4xnEVMa+IDr7rIf0qyKJ5iVaZR39/8owGKpuW2dI2OzNYYYgHOeIc+dlSegjSrs+/bYAejYGdZl2tcnFTPMB3a9LiQmCzryBLWXlar2tQNgsTKcy5zBps5c9M3GiGTAwehdptpNM+TJE9Zq6g7JReX2SAGw2Bg+l2lsahhX9FPGhGTAqPvXF0v8V+JUhie0Q9Ooxgri7w34LBZGuPXrs63gocWA1ED5ly2G55h3Tx5PeBs1T70HOswKSBZ9I579ql2dN/jOok5qAKe8pyDL4wlxz63zntc5/yrAZ9E2UmZjd4pyS1RJDWBLo7kFdYXiiXKv+Hxd1tl9h0CEsOgaOTeffV1ii7FpFEkN4EMNf7Mg3wt5It0rLuzztt5whP1AhLBoWqg+R/u65IIWUSMZgH/4KVmQ/+POwBPsP4CX26rNKz0FAB0hUbNQZ2OPHW2jhDEAd3heC2obwxPwyisunGnV2bcOQEdIlAx31g1tSuRtukJHBZPAW72MMlQW5HuGJ+o9t2Xe0o5dUwCMRcMn8T/nTmBTQ/XNtqoMsvJJDeAY63W+TQsyvRl4It97QzWDN7jltsIrECFaViaNfdM8w23alPpdYAbIyiQ1gIM2j+9bsvC0U4c80W9MbQsG0c2Wo1EA+nSVheEHzhB2xdWETx+6smgGYGftL1bYQ16u94Z4lYDGa5ya6nPaIwC4Yx0haSaBqgs4Q9vyMn5lsLSTGsD/cPrfM/VhuKd4lYKhV1zit+j7OOX/AUCzNNK48hJ43LYf+k+0APe0wNJGah/A+X/jDqnnaGblVRZ64TsLJl9b2EcDAFqmQQt8AZ9zaW8K++JevTVnkDINmAYw1uvf93qyswdSz/AqD43XoHPRgm8nvQcAFRYtx5vUwKLjtB638zC1pQaSjQ+mAeCneMalYtAs9BSvMlFNHX6OwRx/8/bb8q8Ayr3UkpWSTANjrUvI9ayG2/vAsft6pRvAmKyUPJ0eZwFwLf/tSFqj8wA+z/AqGY3XepJg4Ns66yNCxUzr+SUAbG+5pxKe4TavclOP73YA+FprzQBgtOWMS85df+o5hlMrXqWjmto7dw95FtdxA3U/K8b1P7/idJFZUMqrxm1f8Xpn2FgYhWJcH8ZVjhXXkl7QyO1oeJWQLn8dIqybXW/Gb27F8QtZV/iUl6lnfrVBN6N4POh1qjfdMLezX9Omw2btvX3lC82mt6Bpa8/wKilDoTp1m6R69YY1S6krDI8T1dSqce+/7yk7++m1eY65nlC8iktlhBBimpDHlaGopFHc5VViuq7rzs7jTLeSPN3/6f5P93+6/9P9n+7/dP+n+z/d/+n+T/d/uv/T/Z/u/3T/p/s/3f/p/k/3f7r/0/3/0Xsc;" vertex="1" parent="1">
          <mxGeometry x="42.5" y="35" width="75" height="75" as="geometry" />
        </mxCell>
        <mxCell id="3JcrbyyqUBlUs0YY1mea-41" value="" style="shape=image;verticalLabelPosition=bottom;labelBackgroundColor=default;verticalAlign=top;aspect=fixed;imageAspect=0;image=data:image/webp,UklGRlImAABXRUJQVlA4WAoAAAAIAAAAzwIAbwEAVlA4IHIlAABwuwCdASrQAnABPm02l0kkIyKhIrOZAIANiWVu4XdhEYOnbtc36z/af2N9oupvz/+m/of+y+5n/b9uvVP+o9APxj9L/339q/MD5r/6X/M/0f3dfpP/Afn/9AH8U/l3/J/tv+Q7GvmA/qX+G/bH3fP8j+2vua/vn+0/Y34AP7P/pf/j63PsJ+gZ/Qf+j6wH/U/d7///J1/Wv+H+2n/395L///8T///AB///UA/+PVv9SP8j/ce57/U/2//C9al6g9t+WNFB+Wfez9n/f/3M+On9H3v/L7UC/JP6L/nN6BAD9Yf2D9cr6j/iehv2Q/5HuAfmnxt/4v/i+wF/N/7b+zPsqZ/Prj2GP2C61npACdH6s/Vn6s/Vn6s/Vn6s/Vn6s/Vn6s/Vn6s/VmBIzdhi9JVS1XogJEBIgJEBIgJEBIgJEBIgJEA4QFj2ykTHwBHfDflP0DYXYjVqK6UUV432u2Hmw82Hmw82Hmw82Hmw82Hie85MR+uurpqCVXgOa9JOqws3UDKI2CVjIegiRFWRtDNoZtDNoZtDNoZtDNoZtCziIz9qK7RCHcUJVaRCF03I13g4eE2qqqVTGAfIoYrPcUy/mX8y/mX8y/mX8y/mX8KmvRoqvqanI4pEvpwCf3Lr7+tH2+onBMbdS/5RSApl/Mv5l/Mv5l/Mv5l/Mv4Xkwk+Sm3SZ0w7wFELUx6a/7RP0J5TxFdMdxjuMdxjuMdxjuMdxjuMdxjxc/KzHYpZ7g4GOgkCmcYnp2vmmaOXq8Hjf0DaA7Gz7l/Q6/wHOVe/GD0OMTer5wMv5l/Mv5l/Mv5l/Mv5l9MrBjcq2ejLWpbAkxMs88skk2OcE8wADNEApvORvluiRFXdwme4z3Tkdpht1a9w4p2qaKa8V7EBIgJEBIgJEBIgJEBHXT2XRocBgpLKKJy4VuCSt0XFTUWDM1ZNmvpyA4g0XXegObnp2uCNo6xNB/e5pLOGoUXZ+YGALkrPhUApjbDzYebDzYebDzYebDWJrC0S6kKiU0dotCz30hRGX5XaBdaneU8zIJwDh4c4M2kYQuJ3x+XhXykGF9ZQg2y9xTL+ZfzL+ZfzL+ZfzAaTb55SImmNiZWEYQCNPBxVIqkEjZipWLWbDzYebDzYebDzYebDzXvJtuTaQugb0uaXWhCP/SiNIYGwN87jcqhbutOrlMD/bWulNJzlwvB7pjgG2y953MigbykQEiAkQEiAkQEiAkQEiCZwzEqkUzjjchUQ5qfkIubcEiW+mbusBuf6hbhP+Y9Akt0ouKJ9+8Sgv6XD/u21gSICRASICRASICRASICTwOXyoh7rD8Bj0FL3W3NAC7v0DOZZvQGRs8CPSXwEOtBiivORV9z+7Mz6iRa4M/Vn6s/Vn6s/Vn6s/Vn6s90lmcY+d5CRAdHFqy6/30pSLR7DWozrqCNhKtGP7xm68YgJEBIgJEBIgJEBIgJEBIoXibtxNCmX8y/mX8y/mX8y/mX8y/mX8y/mX8y/mX8y/mX8y/mX8Ji4ol4/wzyy6Sknk3LRcRNWEQDF9AXjEBIgJEBIgJEBHZDsu/AAnjgAezWYs9j/Qr4ptta+67QNkL6TxfTvitv4H2evjoHs7ZkYcML4HoH3rSCRvTL/ktGBrlfzzggwI/VkFaXEAd4AydF8eTscLsInhVU+Cp1O4roA+wQFEHF46yO/wyCQcavR1lKZfzL+ZfzL6Ut4bIZO8UnzGxk/y1bWZlfGh7z3nf0PN4JjbfygeRsUvZxMD0RaZ6oMrFdxeOZxY9qMmb6uqiD4cW2uUZlWz7M3QUBKLOxsuAkw+0bQ53LgM0OdaPS1P+PBQwwmo5R/WVJYGY/m1L+4i5CsLA2cfmw82Hmw82HmdJLR4xQ+4oWiw8JV6fXzvP5YDWwB7f9s2FXGbVUB8VaOBMrtGHwVTeRhtxEnMeIv05dVswv908LEFN8Ng7rLQiQ+TVjpVJEiDefNbceydw3v6Xng2Hmw82Hmw859sCRASICRSL65X1b67TG0M2hXAAD+/+4cAAACMPVTNBjYLB3MY2vVvil8Pe0exQU4Jtar/gHlp0WN2OxlLxd95mSTd1hMzY1WmSXplaerT3vQFVI6pnPO8xxj8r2Rw2edb+Z0vuixuOV4HjUr3n4vDyPiXpf0AAPANpUP8GNwVEVvs0SFt9evA7USXoohoVTHHnaw6Vb4jz4mcWtchPyQ7NK8FmaB3l6PKZ4WrQKhEfL4JgjSps3pyVmslGz5qoOToOqb1YPoDs5clxKRpa7l7fFDydEbRnLvNr2nU4ThfdUSnfQMSwJ01/RTU9Obznvv0T9UN29zUGSQ2l/3J4Qbbo1iFVLLtK8jXSEPTVvIYvaZNhfIePvfq4G+oe/HvCjoJzTQQiSGiGxV+0C2B5S9OFv+Uenq9G9/zMz42fgJqbkmx6v7qtddfVcfC+IfvG3IPTm5qWnTINweZ9I26y7i35mudzxTWg7sKxeLgs5ahYvAXKlqg0gFYQjC5vOLj+fhSSmqZyLh81moFvAYTiXGHIqDkOJNbnijBwlFaWB8cAaxgSRihnB4kEyx+U+RUvkNI4M+Gx5BPHBNvfzjMZybCJysF5oNLzhlOmvCYb8El6/qigPvIOC0bmcSTXXqOy4d7qOLu8BEBQQ4dfiSkUB+/mKWJA9+r747WETMaxeCKiO2oYalQJAYO/oYPHnrQU9MBe46DQaXO1jtR7zPL1P5WNkuBYazg3YClAgJFZKlkHxdARa8PDRcluXf8dhPWjF6g6WTB3TKdtL6Uvn3mXF6znMA+se/jJ2c9RL/Yq8ocD5SvgWY7YsHaMIaCrDR5Aju62hDTHTSLI7U88GlzKg2A003iTcL6XfmhrucoCA7+0UMNscLZzU/ZpfspVIg95Y553NbC9PIz60ORYaMb6hXcOpo0Yak6N14B304/q7rt/4gRr+OyiR3vxAnsxn50mYUcM2aRvhUrRaaSAgfbsMKqxBP/5k/QlZZ1+Ha9VlxfL3iccf55nYxgx9AAemv3T+Qm4KceSLYtvuILXfWMREf+GnOGpmKJKe+OTIWfJH4DLFhVo9aM30up/MJLAwJ75o18O1gVraS26IHoOqFSRKFwZ/fZpCVK1ECI9v7UFiqhTa9pIEJ+9sLQEKcVkHV5PleFnek0+ushGa90RkL1og4DsNruQtFOL7fZyqolfdaxI/pKrHBGrbin6PPYO0aWO4xce+PJzsyT8f9VlAS495OjAx3Jlpra7Ro5Yo1LEARRaVu7Ap+OMpSLY5kuuK/ooU20DLcO39maMTisfFsbghbQCgnTOkPHHo1j+Vv+mhj2xBclA/B2la7bfZ/iJ5JoWUfCyR+QEdTtXo9vgAAEPD3iEGWr8mjyuEidO92USCuED+kLw+RXZLhiJCotQae51WmIFgJN0NcuW7obUhzIu6HkpcN76kK4lVYeBGdSO7tECEgOxwhlKUFhNFDI0qeERM+1o+I6207BpJtiYD2JsYl7RdTVes7GU58m3F6zVMwIsdRz1owKcy+3aAQoAR6NtfZLa4dyzqgg6cslAkHdpbu+9Yl5WD+eLBNpVlBuAaRiPhSmxyRs2D2a6BdOxQqJKHKRGCzfzHrS66K1XxQ8NyrXIUGOERQQW+vehu6ipUVNqbSHDNirusH1N0bznz/suxfmjXSveaeXjanHhauLbYjh2LaeL7/nrVJxqiAKjFd6ktxlc2YSPKNjtSuV0JLoVZ0BW3Cxiowsi/8uDgTT5Nbg+sGaTDSk4fxeP0vuXAZtDg2Rx4Q0dYYOoSlbFWXNUdR+JjPl0QSoHoK4rcAAtxN1PPLXLCQE9CNMI3i1k3CbeXP1B3uzq4aVJTsJTDt8kzMny555TF0dWo7SNVRazn+ryGCF9qzwwVHGQ1CHnJkYRkXwu4XGisn9bxFvLfeHuHRgLH9NeJHw+kowMVedRovRTN9GrK7y+CqQaZY+OjWJ5M0qjk6bB+guAWEFA/5Q2J2f3g3iYzYH3kH9B/5BDLkERNm0iTQ5w3XGb+vHP1bBL8bl8oWga+vaHiYVI4bkAGhs1lD64JJGFox+7ZJQ5N0ab0zF+AmY19RbTmoXa+4C7lKUHeUD+UGYwrejpAxGvlh8n1IUvX6sMR36bLLn+VMluzu6IvSOxJUmawiptoNuPhLptAJC3ucpyYeHH4vK6+TgAAJ1D6gAxdNXdq2/Qygb4QomxjAHwHBvveNsXPltcRZ80+LzgmV9Es9uuTwyGFfCpg7JUGtDTROWZqgdqzsRktl5Ugd9lIzIYFtP/be9cFLirVM4JWLLBlNRzt+08qZUZP5S6DPX+0wyDPgwBRioKiiaOgqfvlHED/eBtvF4DnLU6yWamcOHd3yhxj4SgRiQ2BYjBl2m2jxPlYJaCqHIZZ1+J+D4E5bofDvxUWvGIhhN5Xb6JxT4u2MHsU+CUXewfFV7VAVRhciE2fE2A9QZ4OmYNdj6XaoAI1Vo2A/XDMt4n7LitUxcu+YTWZ7iWqPj++1om05e+VA5fx/QUiqegqRxjUhDcLCp0fpD7rv6zjNAZDqIjWeWmq74ELm04HypgaDExSOFHJ8+y7mNB+9xBXOVAkT+b0n4x5mlAZm4HgOsecmOGRtlPCNNBMSDbj9x6urlCk1uv4E2t0ypThmwh1f/miQQ3ApE3Ot/+RGrwhS6eV/z595tispagksUPtjp6Ez+V6VfbdqzI4dZxBqyWV4zL/up3VMSTqvVwBEKC2oNUpBju+u2/0SKJjuvbaXQWA3/+uN2SOarBYebsJoomT4MTbCq8Ge5MNOUTnhr45RJW1N34eq7+ygiRz93zzMpuwPDX7TOtsTD/vClF/IPUjFKUoVsZwDdPzfmqGzEPVFlVOnnC7E5ExzICm7+IWytY9krlLL3WQaKbCLdgRVAWE+Lm2BfDYzeChl2SK0XU9lI8GQbhw6eRe5SIXQlmsf/7jPvY9zCS2Mo8I8fXf/QOIVPOnLManSe9SbS2a1AGanylL5egzKMV4iRGdHxOuUXjh2TytpQokW0whZy37+1jNCIsmWWEJEzQ23Oahd7UGeQVwjVSmrW6DZv8kmm1AFIJD22pSXxVQUE8H1/0USyzHSnqQtbR1nqoMPdJnuN7g2dtsYCYSEKlL1AXbvhhrAb4tJNsl/jVClIDBwJpf0nCxgqWZT4Rq/xSgSNMsr4Emrnzj9TGyKT68ttzabvgGHFJ299XC6XewujAh/45tFuLlDERuTN9zJjhUsmAprGFuMZM/hFO4kDQ9QBBc4Pvvw6T+ubEXqmErrY3xb+A71rtBYlzbYMYJ0KWm7pJqXHWD+IjkLI1OaHpdVx0Ts8z3ZNbO6RtcGnHL2lGow7NoAzqlESBAkywipWanP1sK0Wbpq+Esb2xUCNowg8ojYC7JAd8A2VXj/eZ+sfNBmJ2EwXCRbV7+/BMUR3acnfHLSMHWjCk7zknCNPX6jmNK1EteRUIvqsX+HphHbITx1XCIBVVzNP/N5/zLyKqKzJEDRLD1R8g6pZ5t1tkbNRvY6l1d/MCY8pyc8azBuLw4B0LU7yoiRf1vgmvW4GFkuOL41qm3w8dBIWugH4P1QehJ0ZOU7n1ijDizUBZope8xadOscQUQ8Nu/kSDVHJzLAgDB6fP3BviR4EX7Vb0CAx6UWGUXv5HOBGslYRLaXNicVbgGxvJS68FefZWehqQiT2HwraFqO7cOCXQP4TVl/IhtcTMBU/3PhQW2qjQldWvo3sbJjeeMGeaGGbFMuw8KFNtN96iYOyinwm7kBrH5XvgUVT80g8iB5GFptgp/GEa38OjI++5uxmi3jjOjz+yG/Aldokr6DpASba0myrxyCb3TewmgAAKKV2LCi/VPG22+vapjrGbgG8p2Snmp9XCFmL1o5PubKCqhHXZ+eQhHfefjfhZG4xpuvRM0BCvJ+9jD80YkrF9sSL1dmjXZVx3ekttLU0njiFZ/lvLmKsvlxogGABi4JU3qUfyWDlg6blFH7zi05JZcjgIKYZlpS+g9pPl1fAKK9FR2zFQrxhThJIrCiCvLx0LCjAChLYJncrU10Au42iYIu52XwnLdIfo7E+QvNTMfsDXGnXF4JMkYCszhT/oU3wa6O/Ee3GmCIoVadkEFIYk2bCbX7SOAT4vR3xScaKXm495AG82J0XhMP9zWWy4l02Uds9mgtcW2xTaDqW8aIxI5NkA6FuXhLyYIMacUiIQHHsRhtdsp2PHL2q5GN+dnggssHY0ah6uxaDLnNGDHJzVwlLEdCNbufzx7YaYsjyDLySaam2pCXpHtA1/sXM6ESz6kdyOyuVafKPLyQMnvKG/RNgx7H5fNL4TzIlo0UzpehBjgeMC1uaq5/a7WiJtd5PVJhAQJxgyv7wUkcTcQgvSEfbGAzW7MVr0rGzd3OX++VURoU1v8Bf4sy7791Y7HnWlnK4o0iWQ8c/vy52dm7IarnpS4NZefnd3uVM5nz1/yIkuvU7htWhkytxOBYzgWWE3iPDFh5ODkP5Tr3QkwaJpU06IvKL8EQMoF5tnnvGDmNGKivc3x0Z2PSIHGi7OhzeBOH22R2ZAKIBbD2LutH7zCbk4JUFd5ls21JuudSfxpMrYRwV8UInHt1OOJ2I0/z9Nmf6gHKpPHrFOs/Z1orQFPR8M/16yqRaxnPSKcCAADl416hMYwCz0VLAMIqdmy5m25FUN3notwdnENxoaftzQOsuUd+/4ZCabbyQbKHKFZFgSU1vGpEZ2oYxN0G0lghoQqH5hhnjAl1QNpGDOa9G/cLPVbDLaHUO/gnUSHovdN/Oe6psgXspMMUxkoK8EHluGku4qa18EQxVfjD4mAdJD5S2F/eJdeR/AZy4mpXVxB/mHJuzrzkXVx5M1TRg1rUT4zy8VdH7Xle70bDZjBcQVnLU598cTK228H6EL/FgEDfL6B/FIxLRqCnWYlV1NnURMqISonCaYtf57UtvE8h1oDHm4wHZtuBcFH+z6NNqejnbHAVW9B9XEGLoV6eKPtexOvYSPXh1vbfI9Qfsq+DVfxoMuqlyPGzDd1yS2h0yDFZV0BWQaW7J4TioU8qKnWlvnAzgla55q+EyUM0rVEKOa30ldDSo2K8WztMsekmCTRskzdhxXo3xYh9Vd3ZMP+3npq+utyhiw25XjAhj1Tj8NjbN0fRV6FtwiqhTOH7UV7ck1776RU1EZLwjg6uMFt5tYGkDA0i9FmhgouOr6VUuQzr0bc8KXybjFeYED0KkgtWM7BMCC9/uma2cYxzHwgFk3bgABiLeVby6AEjBFvdPJkzMXH1CloVBXfmLKwb35t+pjY3k+Tp7+Y4R3daQD7HmHPmH7tRPNkyoJYrK0VZ0KeW+5RyqFgdkrvn0QugmhKLXAwE5GmWljfZD/GGW8oM8y3op13hgAQcv5FszYboZSOIbkeFmbyIkozZr6FJwFSEHrKbP2RY8MxkS7Xh71Zx701ZyUKVAur2eP8CechE/xYLMnNGE80kcIGU4eSEj+ET46LsvVHKEw3OM71jMbA8CSR8gQi3m2LNpOslDxU7MtAvUYKbavuotj7BTH8CAy0m/EfYbWtkNcQSQPCDVFNxZ+Fa/chwDz6Ptx5+wfZl1IGMkgkQfrZ1myBJBrove/98vw4sj4LfBE4xpHX+jPOCKnpjEpPPCkGYQslAlRnRhcFW0YT9263YvMHy9fSfSNVHlFYNKCC4AX0u1ZWwwBRa+FXVXc/cWI5lOPZOXNZnBSgIazk/mwTXeMcnUGtD3em+R5j8Dz8QUqpV64yw1LeKpboDqNYG/rY1hNMZrKPs+Gjcv55jRp7zurw2A1gV4Ec5zgC+iTiBAGDSZ2UsL0mgqsoaok8RP53iLvrZi2NYGplzAm+YVRJUTtwUrOigAeIzoPFgdXFpbY+NCWLP1a8JpdHR/kAsfab0TWYEroWzOez8MazvEkojbK8mctE3QvNXbgaWy/Zo1BTJmRDon5g7ylJUOvIIKDNAxHKgVpn7FrHN9pxrnIwhvfzEH6oDijMcHxXmvUoLZuVCrtL+4Y8w1Ppm8IvVHxaLqG9ZoFNoOe8H/3ez5FpFEBcyN3BbNEZR9Zb0N73Bo8P5duwONsC7p2fVdKaCWX8PjPFs/dbWh7rD0KH4WDt+/ZMo+LzuwYs9IXgulVFvhuu9wUCleazOygT86WJvbfbFJXgpBZYZTMMh4gYRfri+VUnxWPJmVkiAau5tf8qmRxRimfh8/rXfWt2hEA/7cCyAAT/Wrn8l71dyMiTmAv10P9zA/Em0R4SZRtBGXCujlLo6LEZju/fvGW5dhHAvjjyRZra/Ql+6M7VAXGQnb1n+OX/frko77vYgWilxx5SDRT02AtkuUxq45Nik4VnH13Xc1456Yc/f/MJQ/KDhoCNWdHbyoQhf9beiaUUNFzq9VrN2A04obFt3pml2XMDoT3y0vpjuVdwMLfx+a63f4CKCJ6AM4Nr9UnqvkqJCbz+4vFQW64RgOIAxA94sbWqH3Q+P5pS6Src2D9KO6M3ak6kkUCB4UsaR2kgKGV+GXTVZh31vJLifKm6tr8+EMqYTygxVkUMt7JWSoOeRspmyDTe5qurSOedAiSf8SoGnmQ7oR/2CP8Ekl5VZHGArFRs3KTugSxbGzF/EiwWrwI+P/Qri1Evfw2hybQU6qcE2AtyXtnMIxjiPXZnmJwQML2RiROmWn4ljelQrCbDGYPInHXFMi71KVwXjCvlTIA5eFALfBC6Czk11DMiKRCW8DsdnZv6ZZH0mhPCk259Z5RUt9OM2mMYqZ2O31pJfBHCh5fpwzer6c3BV+IOu8z0SLF7wPKFrTfyaEhIfyP4M3KazwY59Jm616CtJDMOzhvucMA/eGAAFxGFITAIyJfZfYcwvQfmLcMl1Fr6CkVnc/UmbHldgPNGoX7/yjfbXimvKE6AImBpYPu5mmd7RdxcAUnsPBteyuCsy/fzmGXmdfE5I+JR7kjUsBt/sQDbwfclV0JrfZf4yCuvTS6GH1pUQ5kr5iZTz32YTuUsk1zajK4OZ/JtG61mmaKB3Y75y5v50ex2+6BKHjJ3D3xgOU7dWD/6aEyX2GKaxiIyKxEbzOLxjCnNFIk92M4flwzF8sf8aZ1Es3e+Ro0wFoIanfM4RX2XaxqB3VwvOu8RlhSnOHoKfTi2aAr8uh9tCi5MvVcUYk9diejcNQW+UIeZIjnxIZMp4Db7Tpl+veOVG4Htsy6Y8YH2NIatgSgA0gvNsTwFVEbfMHqjxWLYz5lNynTSkEJCxIvtDuFNyuYLRILt+pAMmjU40uSUAOTIHJeJJDj5A26v0ttnu/T3QzINJRujs+VDAeMQTHb5jYr5pM4jMdqARWxakgayWmc3+TRXn02oTSaJYkdMixaVKvGnzcJCq7RI890rr5uryctDD5gABlW7/zD9vfiQguBYRI9gFITwec9JPJ4zx+VCk12PQWGSXmz35WlZlF71bNj7rKQx+TSpGgQTBtB1ycCKUlSNIclraaodLpldSE1Sux+RL3LUTzYuHzc5rwqWW7gGSLBQrGJtZuD2lEbWklYuXaPozJPWbcKaNBBx3IsG9dFOrlCkYpX0yAxPJTzdG0RndmMNST0/wK4jJKXfBKApzeCLvnykqsVJkjoHG/vACNyaAIRpeZHLc4KjMdKdpRqpqUURJ/y6iUhVmwqVYmbYCQeWR8TGzym6p/qFQGtf3jGAVs6mMKnJd0n31zwH0jn4UY6mB0A03iNNAFNLuymzBvHQ2Xu2+5s1dfay/iBvovf5xnG/v2rYVip43G9KCnCoJ2U37PL3xt+2d55y0WWk0HDvaUqOr6QPztreEdOmAAAAAAAAAABYF5yLc0s6Jx3+eRwxzCOz3EDbOu5lMKebLEIKc2hr03o0KG+FQtbib9qQKWhCtuEVkEqTflxxK5y+PdzblZlv/QZ5zIPftxTFR1LY7HIy1V3VJ6i53sp01GRiBwCqEaAD5wYUy174S4sQj8qc9GM6krAcxytoFzKd2UqGOo4tYP6L4KzKZUM0JOliN4VjrkFTB5ElLVuG0fqV/VGc9notZjS3Dwgk0Msjmgml+Miy8opypOzGP8vUUNmzhi5XBm96GGh43X1xt+qKnRr5MZiTeJu0+DFLD+21AaaM61FrO0tY7ZuxsopyOyCanM/jNBnrWm82XPS/4gU5sJ0wY/+eV1jW0wY9SbTC7lMPEqTf9Pp5sYiVdekebcAwdN05BVAyCN47FgY8+Vjw3PnnQng6Zx1xlJpqEp8lGtVEFBcUDptJECoifvzCSbKZEZBnMxE1R1IDYPRdugSt4IFlwuxONGiYnlQL5HGvO0KUhEXd6VufL8RX/Yg+NUMrAS6biSGeHY8bFIFvrva34Fgi5vsBUgk2CLD49jloAomxrcCUoQoJSToU2qLXxL+EOJ0wn/o//CRb2WlfRixadTL1NbuzgXjVumDxxPSgwyikBI59E+uHn8dzj6SvB0tksO/EGsncXMd4v840q4hc2JzBhdH+e5e1+aX36zghWOSK8kxWKkV4008muHw+QLdaLk1uYqyzMnrOIdWRnoqtbAQuc6ylYfEz1ZpL5CMSu4rPNABgbpK7f9AKYJ/QPBnWWxfytL1izmdeMXDFp1/93q6SlV7kVIbblUdw1yngMQLdkc/lk4M2WeHLvy77MFXjaR2NJ12vH7nKbS2hw6rZMgHsCQSjCaD1HNp9/Kvd3A86hmrqNo8Qk1livSKdbslJWgFPhUuLilZtIRM1och2N0szX9NMh2nZnf5qG/uPDkD4Ul/q2o0llpSWeO+wWkSyTn1O83Riu8UkKHq2uBiLe86axpTsv2bBlt9NrY5bX9gVjxnbWnn/4nkhgxv95fD6pHYjUdH5iqvtkBZoJAAWkEDCtTt+0/blhFtfIz3f7qtkfw1Ri95TeMFrLhgOvoIeC8fC9ww5vDcYdeap96dsfClfxxb44juLCIKuHxEy6a2UO63xg+apBrSvhFPxGum9YvoTvcfRW7lMEEUSkoIqduyI2loycARrWC+GtV3e1RhhwU4UQJc1P4lA11S8W4sw9duug0wMFUL8qI6paZRImN9fXVhCa1NrKxEv/VgUBy2K0EhvHIfYkNlcy+i4tASxQ0UKdUp1My9sxxCJC/B3QyJHC8y5FbnST+XAqfXxfVZx0dKgEUKphj/N/YG2mrWD+DnYhHalb67ZKCK6gL6n3ArTQM6uVE5nAGmk5bbS0VXLKGTA1E+nMlBgb2d6DYKTdmbpu96rib/5YaMxEdQOz2Lat4Zl6QF3eDfSskxX1A0DKR+OHHFMlgv/ACb3Pnr97ldpM6LmTM5IMEwsZSM3qWV8Qw+sJuOXlYzzHQAg0Tg3NCporzJhTiigjXa+HWQJdGXlR14Gs8olbmEpFBJfA4/iVMoeIUtIq0KsitLdd7Wt0D4O830pTKiP5aNXukp1e6e0WYCqMlApmGy7h2ZPwRSeLGBZZfqj0Vn4IyEg1OJjNQjOLFoS6AmK0nBgIAMBgRqPFJNCNNALxWHh7VoIenuIaoXPM6vVwDYovIXTZRgk3Lyo80zFzDbacnVcLCzKQg5X6L6LICvE22+/TrnD0evmL6d7j3oS7ZUEl13KxbO5muWcDX65/5JDqk+oSRXZdLlxzq//PqgQjARm6Y/PczZ8asxrGgWa8kIHNPQFFXG3e9u6EVAHnN5uCz6ymD+ULxNK7uoNz0yq/xYLrQiX7vVubcKTJ/xbMHdxqFnvlQG6gmjZXeYycP67S6FUvm0t+p5lGLMDj2bR1B+fhsPmExq930KLuR5Kf2j9m3AJlJM9xykr1n/AXz2YRHHMaXFkoVeAPIttD8NbkhNI6n6UnHEcjoGotSbLkQARC9QWEkGpO+8wDcoco3dw81EBfKsp6c1T0KOhFuBR8e+DbePddUHur80htxkA3SsJC+xkzADLxzYVFHPwkgJsoHnz1siKMuSQ7HUFw3k8qNP8LwPzsHV8eVckWt9OKCPnOBr3ehFFtivNFlfZoO08Sy5etsZifS8Kiucv+95edaqs6r5UqAo/+AxNCosfd/i3cuFdoUx4PyFdAS1UGkf6NVTbazkeoM5xGL5HM+mxv96iUntwmp8yr7DFfwVgs+UakegVMELy7UgDyXqrzCkKx7hTJKbTvK3SK+FzSDl7K6s4b8UOLji93rtEvatyxRh2t8vYvQg8Xm6PIpyMyJw2cKs8+FMBT6fXMN8lu8Os5SZMJHhlSFtWDaEZ3vvsay5GSdUUgIyxNHhBcWX8G8HHNRuT8XS5hlUPm9+5nwOaChRjNk3xFXHtD4jZbxpoMfodxq8XN4lGZrPDly/Z15xnqAG4nznF/Bke7slXs2hFbDyMlg9ppYlakdpKnq11nS4fgVUPnhEeqNEjblc+km82YnRzsXiFftjCoHZPvhhkGt1gSWAJjtLadewW1lssx9Vx4egO3xH46/xsGPPhL2OOwykrtHPDoSkmjNhRH3ZZDqXq1PfphaRLVX3B3OYtdobwKWmL9uebp4ZunJS8BJ+0VNAkKrAKAae/6Weal+j1PNqx5yM5a8t95N8ytiBKU69zcceQXIFmAcpsnt/TtZ/TTpBqm6fsoVeCixQEC8EdijJ6PA8vMh8djuFjBzxARVn0FnktiE8qaAH0w7wqDPkT60uLpcwyqHze/bC3Wd08fAKh5tRPLIZtisX5r485ePOkjtBTZhfmz/P6tNCDMMV76IPPWU9sJCaHGTpwJjnWTCMRvQhTxGO5tGW52+X22X2yoAE8sxGOZroJ+XxIRes7DbT57KMVZQzQDuBZYB74YfXsu1f7s/bgmc45APNgggXAAAAAAAAAARVhJRroAAABFeGlmAABJSSoACAAAAAYAEgEDAAEAAAABAAAAGgEFAAEAAABWAAAAGwEFAAEAAABeAAAAKAEDAAEAAAACAAAAEwIDAAEAAAABAAAAaYcEAAEAAABmAAAAAAAAAEgAAAABAAAASAAAAAEAAAAGAACQBwAEAAAAMDIxMAGRBwAEAAAAAQIDAACgBwAEAAAAMDEwMAGgAwABAAAA//8AAAKgBAABAAAA0AIAAAOgBAABAAAAcAEAAAAAAAA=;" vertex="1" parent="1">
          <mxGeometry x="565.65" y="46.870000000000005" width="108.69" height="55.55" as="geometry" />
        </mxCell>
        <mxCell id="3JcrbyyqUBlUs0YY1mea-43" value="Code" style="text;html=1;align=center;verticalAlign=middle;resizable=0;points=[];autosize=1;strokeColor=none;fillColor=none;" vertex="1" parent="1">
          <mxGeometry x="208.5" y="-72" width="50" height="30" as="geometry" />
        </mxCell>
        <mxCell id="3JcrbyyqUBlUs0YY1mea-44" value="Test" style="text;html=1;align=center;verticalAlign=middle;resizable=0;points=[];autosize=1;strokeColor=none;fillColor=none;" vertex="1" parent="1">
          <mxGeometry x="451" y="-72" width="50" height="30" as="geometry" />
        </mxCell>
        <mxCell id="3JcrbyyqUBlUs0YY1mea-45" value="PyTest" style="whiteSpace=wrap;html=1;" vertex="1" parent="1">
          <mxGeometry x="436" y="-29" width="80" height="50" as="geometry" />
        </mxCell>
        <mxCell id="3JcrbyyqUBlUs0YY1mea-47" value="" style="shape=image;verticalLabelPosition=bottom;labelBackgroundColor=default;verticalAlign=top;aspect=fixed;imageAspect=0;image=data:image/svg+xml,PHN2ZyB4bWxucz0iaHR0cDovL3d3dy53My5vcmcvMjAwMC9zdmciIHdpZHRoPSI1MTIiIGhlaWdodD0iNTEyIiB2aWV3Qm94PSIwIDAgNTEyIDUxMiI+PHBhdGggZD0ibTQ3LjI4OTA0NzIgNDcuODE3NjA3OXYtNDcuODE3NjA3OWg4MC4zMTIzNTV2NDcuODE3NjA3OXptMzA1Ljk4NTQ4ODkgMHYtNDcuODE3NjA3OWgtODAuMzEyMzc3OXY0Ny44MTc2MDc5em0tMTEyLjgzNjUwMiAwdi00Ny44MTc2MDc5aC04MC4zMTI1djQ3LjgxNzYwNzl6bTI0OS4wNDM4OTk1IDE1LjI4NzgzMDNoLTQ2Ni45MDIyMzY5Yy0zMC4xMDYyNjIyLjAwMDAzMDUtMzAuMTA2MjYyMiA0NS4wODg2ODQxIDAgNDUuMDg4NjUzNmg0NjYuOTAyMjIxN2MzMC4wMjQxMjQxIDAgMzAuMDI0MTI0MS00NS4wODg2NTM2LjAwMDAxNTItNDUuMDg4NjUzNnptLTIzLjM3MDc4ODYtMTUuMjg3ODMwM3YtNDcuODE3NjA3OWgtODAuMzEyMzQ3NHY0Ny44MTc2MDc5em0tODAuMzEyMzQ3NCA3NS42NjQzMTA0djExNy4xMzQ1MzY3aDgwLjMxMjM0NzR2LTExNy4xMzQ1MzY3em0tMTEyLjgzNjYzOTQgMHYyMDEuODUxNjA4M2g4MC4zMTIzNzc5di0yMDEuODUxNjA4M3ptLTExMi44MzY2MjQxIDB2MzExLjIxNTU3NjJoODAuMzEyNXYtMzExLjIxNTU3NjJ6bS0xMTIuODM2NDg2OSAwdjM4OC41MTgwODE3aDgwLjMxMjM1NXYtMzg4LjUxODA4MTd6Ii8+PC9zdmc+;" vertex="1" parent="1">
          <mxGeometry x="430" y="41.28" width="71" height="71" as="geometry" />
        </mxCell>
        <mxCell id="3JcrbyyqUBlUs0YY1mea-48" value="" style="shape=image;verticalLabelPosition=bottom;labelBackgroundColor=default;verticalAlign=top;aspect=fixed;imageAspect=0;image=data:image/svg+xml,PHN2ZyB4bWxucz0iaHR0cDovL3d3dy53My5vcmcvMjAwMC9zdmciIHdpZHRoPSI1MTIiIGhlaWdodD0iNTEyIiB2aWV3Qm94PSIwIDAgNTEyIDUxMiI+PHBhdGggZD0ibTE1My4wMDExMjkyIDQzNC41MzEwMDU5Yy01My42ODI0MTEyLTMxLjQ1NzQ4OTEtOTkuNTI5NTAyOS0xMDcuNDAwNTEyNy0xMjMuMjI1OTYxNy0xNzQuMDExODQwOS05LjUxODAzOTctMjguODk2MTc5Mi0xMi43Nzc3OTk2LTU5Ljg3NjQ2NDgtMjUuMDQ3ODAyLTg3LjY1NjA4MjItMTIuODM1NjUwNC0yMC4xNzY0ODMyIDIuMTk5NTY1NC00Mi4yMzI3MTE4IDI0LjMwMDM2NzQtNDguNjQ2MjAyMSA5LjgzOTc0MDgtMS44ODg1NDIyIDI3LjE0MTA4NjYtMTEuMTY5NjA5MSA2LjI1NjYxMDktNC41MzU5ODAyLTE4LjcyMzU5MDkgMTMuNzM3MTU5Ny0yMC41MzU2MjU1LTEyLjQ2OTU1ODctMS4zMzYwNDA1LTE0LjEyOTAwNTQgMTMuMTAyNzkwOC0xLjc0MTYyMjkgMTcuOTI2MjM1Mi0xMi40NjgwNjM0IDEzLjQ0NTQ2ODktMjIuMTI0MjM3MS0xNC4wNjUxNDc0LTkuMTcyMDgxIDM0LjEwNjAyMTktMTkuMjUyMzU3NSA5Ljg2ODIxMzctMzIuOTM4NDA0MS0yNS4yNDkyMjU3LTI3LjI0MTA5NDUgMzUuMzE4MjYwMS0zMi40ODUwNzY4IDIwLjM3NTMyNzktMS41NDc1Mzg3LTMuNTc2ODY2MSAyMy43ODk2OTk2IDQyLjMyMTk3NTctNC4zNjAxODM3IDMxLjY3MjM3ODUgMjMuMTExNzUxNiAxMC44MjQxNjUzIDEzLjE5Mjk3MDMgNDAuNTMzNzA2NyAzLjAwMjc1NDIgMzkuNzk2Njc2NiAyMS41MTEyNjEgMTUuNzY3OTc0OSAxLjA4Mzg5MjggMjEuMTc5NTk1OSAxNC4zNTEwMjA4IDM1Ljk4MTU2NzQgMTUuMzY5NTc1NSAxNS4zNDA3NzQ1IDYuOTI3ODI1OSA0My4xNTExNTM2IDEyLjM4NzA0NjggNDguMzcxMzM3OSAyOS42NzQzNjk4LTE1LjIxOTc3MjMgMTIuMDQ5NDY5LTUwLjQ2MzQwOTQtMjQuODg5NDg4Mi01Mi4xNTY1NzA0IDguNDY0ODEzMiA2LjQyMjYyMjcgMTE3LjY1MzYyNTUgMTIuNTA3NDMxIDE1OC4yMTkwMjQ3IDY5LjMxOTUwMzggMjE5Ljg1NDgyNzkgMzguMjY4MzU2MyA0My4yOTkyNTU0IDkwLjg1MzEzNDIgNjMuNzE4MzIyOCAxMzUuMjQ0ODU3OCA3MC45ODc3NjI1IDkuNTYyMTMzOC03LjMxMzkwMzggMjYuNDQzOTA4Ny0zNC41MDUyNzk1IDQxLjM2MDgzOTgtMjMuMDM5Mjc2MS43MDc3MzMyIDEyLjg4MzMwMDgtMjkuNjA3Mjk5OCAyNi45MzE2MTAxLTEuNDI2MjA4NSAyNS41MDc3MjA5IDE2LjU0NzY2ODUtNC45OTE5NDM0IDI4LjAyNTA1NDkgMTIuNzk3NDg1NCA0MS42NTE3NjM5LTMuMjQ4NTk2MiAxMi41NTQxNjg3IDE0Ljg3MDYzNiA1Mi4xODA0NTA0LTkuNTAxMTU5NyA0My4yNDc4OTQzIDIwLjg5NDU5MjMtMTIuMDc4ODI2OSA3Ljc5MjkwNzctMjkuNjk1MDk4OSAzLjA4MzkyMzMtNDEuNzkzODIzMiAxMy44MDQzODIzLTE5Ljk0NzU0MDMtOS45NjMwNzM3LTM1LjgyODY3NDMgOC45MTQ4NTYtNTcuOTEyMDQ4MyA2LjUyNzQ2NTgtODUuMTMzNTc1NCAxNC45MDAxNzctMTk2LjA3MzgwNjggMS40NTk3Nzc5LTI1Ny45OTQzNTQyLTQzLjgzMTM1OTh6bTEwMC4wNjEyNDg3IDM2LjgyMTIyOGMzNy4xMTQxMDUyIDUuMTYyMDE3OCA3NS40NDExOTI2IDEzLjEwMTc0NTYgMTEyLjY4ODI5MzUgNS44NTkyMjI0LTE2Ljg1NzU3NDUtNy42MTE5OTk1LTM0LjI4NTU1MyAyLjk2NTQ4NDYtNTEuMDc5NjIwNC01LjQ0MzA1NDItMjAuMTQyNDI1NSA0LjMzNDIyODUtNDEuNzU3NTM3OC0xLjEwNDEyNi02Mi4yMzQ1NDI4LTMuNzgxNjE2Mi0yMy4yODU4NTgyLTEwLjM3MjM0NS00OC40MTUyNjc5LTE3LjUwNDYzODctNzAuMjIxNDk2Ni0zMC45NjgxNzAyLTI3LjI0Nzc3MjItOS45NTIzMDEgMTQuMDkyMTc4MyAxMi43NjMyNDQ2IDIxLjQ1MDU2MTUgMTQuNjAyOTk2OCAxNy4wMzMzMjUyIDkuNjY4MjEyOS0xOC43MzEyMDEyLTQuOTU2MjA3My0yMy43NzMxNzgxLTguOTc1MzQxOC0xNC4yNjY0MzM3LTguMDAyNzc3MS0xNi40NDU1NDE0LTYuMTM3NTczMi0xLjc3MzcxMjIgMS45ODk4MDcxIDIyLjg3Nzk5MDggMTQuMTczMjE3OSA1MS41NTAxODYyIDIzLjc4MTQ2MzcgNzQuOTQzNjk1MSAyNi43MTYxNTYxbS0xMDYuMjI4NjgzNC01MC41OTg5MzhjMjAuNjg0Njc3MSA3LjY2MTYyMTEtLjA5MTIxNy0xNC41NDU4OTg0LTkuNTY5NzYzMi0xMy4yNTU0OTMyLTQuMTk5NDkzNC03LjI4NTY0NDUtMTYuMDQ0NDI2LTExLjg4ODE4MzYtNy42ODg5MzQzLTE1LjgwMTg0OTQtMTUuMDI5OTA3MiA1LjIxNzgwNC0xNS43NDQ0ODM5LTE5Ljg0MTk0OTUtMjIuODA5MjY1MS0xNi4yNjE1OTY3LTE1LjkwMDM1MjUtNS4wMjA3ODI1LTYuMTg4NDE1NS0yMi44MDY2MTAxLTI1LjEyODUzMjQtMzMuNzI4ODgxOC0xLjcyODg2NjYtMTEuNTA4OTcyMi0xOC44MTc4MjE1LTIxLjQ5MTI3Mi0yNC4yNjg0MzI2LTM4Ljg1MDgzMDEtMi40MDczMDI5LTguODg4MDkyLTE5LjMwNjc5MzItMzQuNDExNjIxMS04LjkyNTQxNS0xMC42NTgwNTA1IDguODM5MjMzNCAyMi44NjY3NjAzIDI0LjM5MTE1MTQgNDIuNDQ5MzQwOCAzNy4zMzMzMzU5IDYyLjAwOTYxMyAxMC4wNDk1NjgyIDE4LjYyMzYyNjcgMjEuOTE1OTc3NSAzOC4wODc0OTM5IDQwLjIxODIwODMgNDkuNzA1MzgzMyA2LjE2OTUxNzUgNS45MTgyNDM0IDEyLjEyNjMxOTkgMTQuOTg2NTQxNyAyMC44Mzg3OTg1IDE2Ljg0MTY3NDh2LjAwMDAzMDZ6bTI2LjYzODQ0My0zNi4wNDM3NjIyYy0xMS4zMTc2MTE3LTYuMDMyODA2NC0zNS45NTUyOTE3LTkuMTU0MDUyNy0xOC41Njg5MzkyIDQuNjQ1OTk2MSAxMS4xNjA3NjY1IDQuNTEwNDA2NSAzOS42MDYxMDk2IDYuNjk4NTc3OSAxOC41Njg5MzkyLTQuNjQ1OTk2MXptMTguOTY5MDU1MSAyMy45ODQ2MTkxYzI0LjMwNzAwNjggNi44NzU5NDYtMjAuNDM5OTcxOS0xNS4zNzEzMDc0LTUuOTk3MjM4Mi0yLjUzMDE1MTR6bS4yMDYxOTItMTIuODc5OTc0M2MxNy42NTgwODExIDIuMjc2NzAyOS0yMS4wMTA0OTgtMTIuMDEwNjIwMS0zLjg3NDM0MzktMS4yNzgzODEzem02MS4zNzAwMTA0IDM3LjczNDg2MzJjMTYuNDg1OTAwOS05Ljg1NTgzNSAxMS4wNTA3ODEyIDIzLjA3OTE2MjYgMjcuOTY5MjY4OCAyLjc4MjMxODEgMTYuNjg4NzUxMi0xMi4xODUxNTAxLTE0LjQxMjA3ODkgMTUuMDY0Njk3MyA2LjE1NjAwNTkgMi4xNzI2MDc0IDE0Ljg3NDcyNTMtOS45NDg2MDg0IDM2Ljg0NTE4NDMgNC43MTYwMDM0IDUwLjcyNDc5MjUgOS41MDA4MjQgOS45ODEyOTI3LS40OTAzNTY0IDE5LjY4NDUzOTggOC42MzA3Njc4IDI5LjkxNjk2MTcgMy4wODE3MjYxIDE5LjY5NzQ3OTItNS4zMDU0MTk5LTM4LjUxNzk3NDktNy44Njg4NjYtMjMuMjU3NzIwOS0xNy4yODE4Mjk4LTE4LjAyMzMxNTQgNS4yNDU1NzUtMzEuMzM5NzUyMi02LjI1MzYwMTEtNDAuMjA4NDY1Ni0xNy43OTgxODczLTIwLjIxNjg4ODQtNC42NjgzOTYtNDMuNTkyMjI0MS0xNS4wMDQzOTQ1LTUzLjY4MTk5MTYtMzIuODk1NjYwNC00LjExMzc2OTUtNi43MTc0OTg4IDUuOTQyOTQ3NC45NDYzNTAxLTMuNTUxMTkzMi0xMC4wMzQzMDE4LTEyLjE4MjI2NjItMTAuODM1MzU3Ny0xOC4yNjUyODkzLTIzLjEzNTEzMTgtMjYuNDQzMjM3My0zNi4zMDYyNDM5LTkuNzY5NjA3NS01LjIxMTg1My0xMC45MDc3NDU0LTIwLjU1MjU1MTMtMTEuODk1Mzg1Ny0uNTE0MzEyNy4wNzc0MDc4LTEyLjY0NjQyMzMtMTEuNzk1NDg2NS0yMS4xNTgzODYyLTE0LjY5MzQyMDQtMTcuNjIwMDU2Mi0uMDUxOTU2Mi0xMi4xNzkyMjk3IDEyLjcwNjIyMjUtNi4wNzQyNDkzIDMuNzc1MDcwMi0xNS4wODU0Nzk3LTEuOTIyMzE3NS0xMi42MjMzMjE1LTguMjUxNzM5NS0yNS43NzcxOTEyLTEwLjE1NDIyMDYtNDAuMDI5NDgtMi45NTU4ODY4LTYuODcwMTE3Mi0uNDE2MjU5OC0yMS41ODQyMTMzLTEwLjA4ODUwMS02LjAzMTgyOTgtMy41MjM4NjQ3IDE2LjQzNjQ5MjktMS4xNjk2MTY3LTIwLjE5ODU5MzEgNC4zMTAzNDg1LTguMTE3NzgyNiA3LjE5MjY1NzUtMTIuMzI3MzQ2OC0yLjU4MjI2MDEtMTAuODc3NTE3Ny0yLjk4MjY5NjUtOS4xNjU3NzE1IDQuNjg1MzYzOC0xMC40MDExMDc4IDIuOTY1NDk5OS0yNS4xNTQ0MzQyLTEuMjIyNTM0Mi0xOS41MjYxMzgzIDIuNDk2NjEyNS0xMS4wMjM5MjU4IDMuOTQ0MTY4MS00MC41NzExMjEyLTMuNzM2NjQ4Ni0zNS4zMzQ5OTE1IDQuNjU1OTI5Ni0xMS41Mjc3MSA4LjgyOTgxODctNTIuNzQ4NTgwOS0xMS4zODIxNDExLTM3LjAzMjQwOTctOC4xOTE0OTc4LjExNTAwNTUtMjIuMzc2Nzg1MyAyLjk3MzU0MTMtMjkuMDgyMTM4MSA2LjMwODI3MzMgMjEuMDI0MDkzNiAxMS41ODkwNTAzLTIuMTE0NzE1NiA0LjE4NTE5NTktMTAuNjcyOTEyNiAyLjM0MzI3Ny0xLjExNTEzNTIgMTAuNzIzMzQyOS05LjU5MTg1NzkgNi4wODU1NTYtMjAuMTgyMDY3OSA2LjE5MDY4OTEgMTYuOTE0ODEwMiAyLjA5Mjc0MjktOC4yMzY3NjMgMTcuMjk5NjY3NC0xNy45NDAyNzcxIDExLjM5MjU5MzQtMTIuNjAyMTM0NyA2LjAyMzA1NiAxMC44NzU5Njg5IDIxLjA1NzY2My4yNTI4MzgxIDI1LjcwNjE2MTUgMS4zMDU1NDIgNy4wMDgyNTUtMTkuMzA2NTAzMy0yLjUzMDgzOC0xNy42ODc2ODMxIDEzLjY1MzY4NjUtMTIuMjM0MjMtNS4xNDY2Njc1LTEuNjg0NjAwOCAxOS4xOTg2Njk0IDQuNDM2MTU3MiAxMC45NjQ4ODk1IDIwLjgwODE2NjUgNS42MzE2MjIzIDE0LjY0ODQ1MjggMTguNDcxMDU0MSAxNS4xNzgzNDQ3IDMwLjY2NzQ1LTMuMzkwNDAzNyA3LjEwNjg0Mi0xNi43Mzg2Mzk4LTE2LjcwNDkyNTUtMi45NzI4NjIyLTE1LjYwMjE0MjMtMTAuODYwMTUzMi0xNy42NDE5MDY3LTEyLjAxMzIyOTQtNi4zNzY3Ny0yMS4wMzc2NTExIDEuODE4OTI0LTIuMDk5NDc5Ny41OTUxOTk2IDIzLjAxOTIzMzcgMTEuNjYxMTAyMyA3LjI1NTkzNTcgMTcuMTMyOTE5MyAxMy44Njg0Mzg3IDIuMTM5ODYyMSAxNC4yNjI5OTI5IDE0LjI3NjA2MiAxNy4wODYyNzMyIDIxLjk1NTc0OTUgOC4zMzU2NzgxIDguNjgyMDk4NCA2LjYyOTYzODctOS41ODY3OTIgMTYuNjAzNTg0My44NDY5ODQ5LTYuMzExNjIyNi05LjI5NTM0OTEtMzMuNDMxMzA0OS0yNi4xOTA0MTQ0LTExLjU5NjMwNTgtMjAuNzcxNzg5Ni0uMTE2NzIyMS05LjM1NTM5MjUtMy45NDkwNTg1LTE2Ljg5OTM2ODMgMi43NDA1ODUzLTE2LjcxNjM1NDQgNi42MjQ2NTY3LTExLjk5NzI1MzQtNi45MzgwODc1IDI5LjU4MDIxNTUgNy45OTQyODU2IDE0LjMzMjc0ODQgNC4xMzM1MjItMS44MDQ5MDExIDUuMTU3MzQ4Ni0xMi4wMTI0NTEyIDEyLjU4NzI1NzQuOTYzOTU4NyAxMC43OTE1MjY4IDEwLjYxNjE4MDQgMy44OTc5NDkyIDE4LjMwODg5ODktMTEuMzI0NzE0NyA4LjU4ODIyNjMgMi43MjM0ODAyIDkuMjM5MDQ0MiAyMC4zNjQwNDQyIDEyLjU0MDcxMDQgMTcuMDQ4OTQyNiAyNi45ODg3Njk1IDMuNTE0MzM1NiAxMi43MDczNjY5IDguNDMxMTgyOSA4LjAyNzAwODEgMTIuNzE3MDQxIDcuMjkyMzU4NCAzLjM2MTk5OTUgMTIuMzQ2Njc5NyA1LjI3MTEzMzQgMy4yNjc4ODMzIDUuNDMwNjAzLTIuNjA3NTc0NSAxNS4zOTM3MjI1IDMuMjk1MzE4NiAxMS43ODgwMjQ5IDEyLjM5NDg5NzUgMTYuNjA0NjE0MyAxOC43NTIzODA0IDEwLjYwNzU3NDUgNC43ODc5MzMzLTE1LjE4MzAyOTItMzIuNDU0NDk4MyAzLjAyODM1MDgtMTEuMTk4NTQ3NCAxOS4xNjAxNDEgMTcuMjk4NzA2MSA3LjI4OTM4MjkgMjMuMjYxNzQ5My0xMC4wMDg3NzM4IDIxLjc0ODQ0MzYgMTQuMzg4MTIyNiAxLjE3NzUyMDggMTQuNjkwMzgzOSAxMy45OTM4OTY1IDI4LjAwNDUxNjYgMTQuMTY0Nzk0OSAxMS41NzI2NDcxIDUuOTY3MTAyMSAyMC42OTMwMzg5IDI4LjM1NDMzOTYtLjcwMzMzODYgMTguOTEyNjg5Mi0xMi4wNjU2NTg2LTcuNDg1OTYxOS0zMy41NTgzODAxLTE0LjcxMzc0NTEtMTIuMTA4NjI3My0xLjk4NjM4OTIgNS4wNzc4MTk4IDMuMjEzOTg5MyAzNS41NDU0ODY1IDE0LjY2MjQxNDYgNTQuNjUyMzc0MyAyNi4xNzgyMjI3IDEwLjU3ODY0MzggNy4yMzE1OTc5IDE5LjU4MTg2MzQgMjAuOTQyNjI3IDI0Ljc2NDY0ODQgMjMuMTU1ODgzOC0xMS40OTI1ODQyIDUuNDg5MjU3OC0zNC42MzQwOTQyLTQuMzgzMzMxMy0xNy40NTAxMzQzLTcuNDA4OTM1NS0xMC43MTgwOTM5LTEuOTUyMzkyNi0yMi40MDEzMjE0LTcuNDQ5OTgxNy0xMi41MDcwODAxIDUuOTgxNjg5NSA4LjUwNzQwMDUgNy43Nzg2MjU1IDMwLjkyNzY4ODYgNi41MTY1MSAzNC45MDcwMjgyIDcuMzQyMzQ2Mi0zLjM3MzAxNjQgNy40MzIyNTEtOS4xNjIwMDI2IDguMDIzMzE1NC4xMzgyMTQxIDguNTk5NzYyLTEwLjM3NTQ0MjUgNS41MjkyMzU5IDMuMzI2OTk1OCA2LjM4NTQwNjYgNC4yODg2ODEgOS41NDQ4NjA5em0tMjIuMzM3ODkwNi02OC4xMjI4OTQyYy02LjgyMzctMTAuNzU5MzY4OS01LjE5MTU0MzYgMS42MDU3MTI5IDEuMTIwOTU2NCA4LjIwNzMwNTkgMTAuMDg4Nzc1NyAxMS45OTkyOTgxIDIuMzc4MzI2NC02LjgwMjA2My0xLjEyMDk1NjQtOC4yMDczMDU5em0tMzcuNjcxMDgxNS01NS42NTc4OThzMS42ODIwNTI2LTExLjM1MDIxOTctMy41MDczNTQ3LTEyLjYwNTcxMjljLTUuMTg5MzkyMS0xLjI1NTQ5MzItMi4zMzA4ODY4LjgzNDE2NzUgMS44MjE3NDY4IDkuODE5MTUyOC45OTAzODcgMi4xNDI4ODMzIDEuNjAyMDUwOCAyLjg4NjA3NzkgMS41OTM3MTk1IDIuODM2ODIyNW0tNTYuNzExODA3My00My4wNzE1MDI2Yy01LjE1NDg0NjItMTEuNTQ1MzMzOSAyLjQ1MjkyNjYtNS4yNzYyMTQ2IDEuMzQ1MDYyMy0xMC4yMDAxMDM4LTIuMzc5MDc0MS00Ljk0OTY2MTMtMjUuNTA3NTYwNy0zMS4yMzU0Mjc5LTE0Ljk3MjM4MTYtMTEuMzkwOTYwNyA5LjUzMzM0MDUgMjMuNjczMzA5My01Ljk5ODY0Mi0yLjk3MTgzMjMtNy42MTg5MDQxLTExLjAzNzU1MTktMS43OTEwMDA0IDQuOTUyNTI5OSAzLjc3MjE0MDUgMjEuMTc1Njc0NCA3LjEzNTIwMDUgMjYuNzA0NzU3NyA4LjU2MTQ2MjMgMTMuMTg0NjYxOSA0LjcxMDM1LTcuMjIwODI1MiAxNC4xMTEwMjI5IDUuOTIzODU4N3ptLTQ3LjM2MjMyLTQ1LjUyNDIzMWMtMTMuMzg1OTg2My0xMS4yNTk5OTQ1IDQuMTI2Njc4NSA1LjU1MDMwODItMS4zMDkwODIgNS4zMzgxODA1LTE0LjEwNzExNjctMTAuMzAyNjczMy04LjM0MDkxMTktMy4wMDM3ODQyLS4zNzI4MDI3IDQuOTE0MTU0MSA4LjYzMjU5ODggMTIuODI2NzIxMiAxNS43NTc2OTgtNy42ODU4MzY4IDEuNjgxODg0Ny0xMC4yNTIzMzQ2em02Ljg3MjI0NTggMS45MzU4NjczYzI1LjMyMjY2MjQgNi45NTc0MjgtMjYuOTQ4MjgwMy0yNC40MzYxNDItMy43ODQzMTctMy44MjE4MjMxem03MC4wNzYxNjQzIDI5LjkyOTc0ODZjLTcuMjY4MjguMTQ3ODU3NyAzLjAxNDU0MTYtMTUuODI2NzIxMi02LjczMDIzOTktMTIuNjc0Mzc3NC0zLjQxODM4MDctMjQuODI3NzQzNS0xMC43ODU5MzQ0IDExLjQ3Mzg5MjItLjc2MjAwODcgMTcuNDg0MTc2NiAzLjA5NTEzODYgOC44OTI3MzA3IDYuMzQ2NzcxMyA1LjI2OTEzNDUgNy40OTIyNDg2LTQuODA5Nzk5MnptLTU5Ljc4NTI2MzEtMzUuMzE3OTAxNmMzMy43MTc3NDI5IDE1LjU2MTAzNTItMjQuNDEyNTI5LTI1LjczOTI4ODMtOS41MzEyMjcxLTUuMjA3NTk1OCAxLjc2ODY2OTEgMy45NTcxMDc1IDYuMDA3OTgwMyA0LjI4NjExNzUgOS41MzEyMjcxIDUuMjA3NTk1OHptMy44NjQzNDE3LTguMDY2MTkyN2MyNS41MzcxMDE3IDEwLjU1NTc1NTYtMi4yNzE0MjMzLTYuODY5MDQ5MS0xMS4xMTU5NTE1LTQuOTc3MzI1NCAyLjIyOTU1MzIgMy4yNjMzMjA5IDguMjc4NDY1MyAxLjgzNjEyMDYgMTEuMTE1OTUxNSA0Ljk3NzMyNTR6bTMuNDE5NDU2NS05LjU1NTIzNjhjOC4yODk4NzEyLTEuNjU1OTI5Ni0xLjA5OTQxODYtNC4zMTM4NTgtNi4wNTMyMzAzLTguMjUwMDQ1OC0xMS40NjQ2ODM1LTE3LjIyMjgwODggMS43MDUyNDYgMS4zOTA1OTQ1LTEuODk4NDI5OSA2LjY3NjcxMiA0Ljc3MTc1OTEgNC42ODk5NTY3IDIwLjk4OTQxODEgMTMuMDc0Nzk4NyA3Ljk1MTY2MDIgMS41NzMzMzM4em01OC42NDc3NjYxLTI2LjcyMTE2MDljLTMuMzg1NDA2NSAxNy44OTE0OTQ4LTYuODM4MzE3OSAxMC40MjkzMjEzLTEuOTg1NDU4NC0yLjkwOTc5LTEuMTYwOTQ5Ny0xNy4xMTk0LTExLjU2NDkxMDkgMTAuNDg0MDM5My02Ljk2NzEwMjEgMTguNTg2NTE3MyA3LjYwMjA4MTQgMTIuMTA5MTE1NiAxNS4yMDQzOTE2LTI5Ljc1NzQ5MiA4Ljk1MjU2MDUtMTUuNjc2NzI3M3ptMTAuMTA4NTM1OCAyMTMuMDE2NDMzN2MxMy4xNjY5NzY5IDMuMzc4Mzg3NSAxMy4wOTk2NzA0LTIuMDQ4NjQ1IDEuMTk5NDQ3Ni0zLjY2MDk0OTctNi40MDA4NDg0LTUuOTU0NDk4My0yNi41OTc3NjMxLTEyLjI3MDM4NTctOC41MjA0OTI2LS43Mzg4NjExIDEuMTk3MjE5OSAzLjAzMjY1MzkgNC45ODAzMTYyIDIuOTYyMDM2MiA3LjMyMTA0NSA0LjM5OTgxMDh6bS00Ni43NDkyODI4LTMxLjA1MDY4OTdjNy4yNTM3NTM3IDUuNDA5MTc5NyAyNy4zMjI5MDY1IDE1LjMzMDUwNTQgMTAuMzMzNzU1NSAyLjA1ODgwNzQgNS43Mjc5ODE2LTYuNjU0OTA3Mi0xMC45NjM1OTI1LTEwLjE5NzIzNTEtNS40MjY2MjA1LTE0LjY0ODg2NDctMTQuMDgzNDgwOC04LjYxNzg1ODktMTEuMTA5OTA5MS03Ljg1MTI4NzgtMS4yNDMwNzI1LTcuNTgwMTA4Ni0xNi45MjU4MjctNy41NjU0NjAyIDIuNDQzMTMwNS02Ljk5OTU0MjIgMS41MzExMjc5LTEwLjg3NjA5ODYtNi41MjY0NTg3LTEuMjg5MDAxNS0zMi40MTY4NDcyLTExLjUwODExNzctMTcuMTg1NjYxMy44Mzk0NDctMTUuNDgzNTEyOS03Ljg5NDU5MjMtMy42ODk3NjU5IDIuOTQwODU2OS04LjM2OTY2NzEgMS43OTUyODgxLTE1LjgzMjkyMzktNC4zMTY5ODYxIDE0LjEwMDEyODIgMTIuMDU4ODA3NC0yLjUxNDU5NSA3Ljk5MzY1MjMgOS4wODMzMjA2IDcuMTk4MTgxMiAyNC40NDkyMjY0IDE4LjQzNzg5NjcgMy44NDAyNDgxIDcuNjE3NTUzNy0yLjcxNTQwODMgMy45MDg2NjA4IDE0Ljc0Nzk4NTggOS44MzMzNDM1IDE5LjAzNDQ4NDkgMTIuODAwMzIzNHptMTY0LjUxNDgxNjIgOTYuNDc5MjE3NmM2Ljk0NTAwNzMtNi43Mjk1ODM3LjI4MzkzNTUgMTAuNzE5NTc0IDExLjUwNzg3MzUtMS42NDc0NjA5LjEyMTM2ODQtOC44NTMyNzE1LS4zNDU2MTE2LTE0LjA4MjU1LTEyLjg5ODE2MjgtMy4zMjc5NzI0LTMuNDYwMzI3MSAxLjkxOTAwNjMtNS4wMDUxNTc0IDEwLjA3ODQ5MTEgMS4zOTAyODkzIDQuOTc1NDMzM3ptLTExMy43MzA0Njg3LTczLjAxOTA0M2M3LjcyNTU3MDcgNi44NjIwNjA1IDM1LjQ4MjM3NjEgNS4wMzQ5NDI2IDkuMzgzMjcwMy44NDQ0NTE5LTMuODY1NDkzOC01LjcxNTM2MjUtMjQuNTQ1MjQyNC00LjMzOTgxMzItOS4zODMyNzAzLS44NDQ0NTE5em0tMTI3LjI0Nzk2My04NS40NzU0MzMzYy0xMS4yMjIzNDM0LTE2LjAxMjE0Ni02Ljk3NjEyMzgtMjMuMjA5NDcyNy0xNy43OTgzMjQ2LTM2LjI4MzYzMDQtMi4wNDg3NDA0LTkuOTk3ODk0My0xOC41NjU3NzY4LTMyLjY4NTE5NTktOC41NDI5NjQ5LTguNjQ5Nzk1NSA5LjE4MDMxNjkgMTQuMDU3MjA1MSAxMS45MDgzMDIzIDM1LjgyMTc5MjYgMjYuMzQxMjg5NSA0NC45MzM0MjU5em0zMzIuNTAyNDc5NiAxNTguMDMyMDEyOWMxMC45MTg1MTgxLTIuMjEzNzE0NiAzNS43OTk2NTIxIDUuNTU3MzczIDM5LjgyMTE2Ny0yLjg5NDk1ODUtMTMuMjU5MjQ2OC0uMzIxOTI5OS00NS44NzM4NDAzLTkuMzU0NjQ0OC00Ny40MTY5MzEyIDIuMTU1NTQ4MXptLTM3MS44MDAxMDAzLTI3NS45MDYwMjExYy0xLjk4OTk1NzgtMTEuNDA3NTkyOC00LjM5NjMyNjEtMzEuNDMxMTk4MSAxNC42Mzc2MzYyLTI0LjY2NDI0NTYtMjUuNDA3MTg0NiA1LjA0NDMyNjggMTcuNTg0NTkwOSAzMS41Nzg1NTIyIDEyLjE1NTUyOSAxMC42Mjg4NDUyIDEwLjY4MzEyNDUuNTIzMDg2NSAyMC44OTg2NTg4LTYuMzEzNzUxMiAxNS4yOTIyODIxIDQuMDYxNTM4NyAyMS4wNDg4ODkyLTIuMzI0NzM3NSAzNS42NDE3OTk5LTIwLjU3NzEwMjcgNTUuOTczNjE3Ni0xOC4wMTk0MjQ0IDE1LjgzNzUxNjgtMi4wOTU4MjUyIDMzLjE1MzY5NDItMy42ODUzNDg1IDUwLjIyMDY2NS0xMC4wNjA0ODU4IDE0LjAzMjI1NzEtMS4wMTA5MSAyNy41NDAyMjIyLTE2LjExODc1OTIgMTkuODQ4NzU0OS0yNS4wNzM1MDkyLTE5LjEzNTk4NjMtMS42MTkxMTc3LTM5LjE2NzI2NjguNzc1MTE2LTYwLjMxNzgyNTMgNC45NzkxMjYtMjMuNDM3NDc3MSA0Ljg3MjMxNDUtNDQuNzI2NjA4MyAxNC4xMjkzNzE2LTY4LjM3NDQ5NjUgMTguMTAyOTI4Mi0yMy4wNTAwMDY5IDMuMDk2MzI4NyA0LjYzNjMwMjkgOC41MzExNDMyLTEuOTY2MTQwNyA5Ljc0MTk1ODYtMTIuMDI3ODMyIDQuMTczMzA5MyAxNC4zNDQxMiA2Ljk4NzUzMzYtMS41NTkzMTg1IDExLjM4NzAwODctOS44MjE2NzgyLTEuODY3NDYyMi0yMC4wNDQ3ODA3LTUuMjQyMTExMi0xNS44NDk0MDM0LTE1LjU5MjM2MTUtMjIuMDc5ODc1OSAyLjg2NTE1ODEtNDEuNDgxNzUwNSAxMi4wMjkwNTI3LTI0LjAzNzMxMTYgMzQuNDk4MTY4OXptNTkuMDExMjIwOS0yNC41NjM2NTk3YzE5LjI1MDEyOTcgMTMuMTYwMzA4OC0zLjMwODM1NzItMjEuNjA0NTk5LTguNDg1MzEzNC0yLjUzMzE1NzMgMi40MDQ1MzM0LS41OTE0MTU0IDYuMTg2MDM1MS44MTI0MDg0IDguNDg1MzEzNCAyLjUzMzE1NzN6bTUuNDc5MjQwNC04LjgxODI1MjZjMTguMjQ4NTUwNCAxLjgzNTE0NC0yLjc5NTQxMDItMTEuNTg2Mzk1My0zLjQ2OTkxNzMtMy4xNTkxNjQ0em0zMC41ODMxMjk5LTExLjE3NjQ4MzFjMjYuOTM1NjkxOC01LjEyNzA1MjMtOS44NjM0MzM4LTguNTU3NTQ4NS0xNy43NTUwMTI1LjkyNDU2MDUgNS4wMDEwMyAyLjI4MDMzNDUgMTAuNTM1Mjc4My02LjM2MDAwODIgMTcuNzU1MDEyNS0uOTI0NTYwNXptNDYuMjAwNTUzOS05LjE3NjA0MDdjMTcuMDI3NDgxMS0yLjYxNTA4OTQgMi42NzY0OTg0LTEwLjQzMTAwNzQtMi4zMDUzODk0IDIuNjIzMjQ1MiAxLjgwNjA5MTMgNC4xMTYwNzM3IDIuNjc1MTQwNC0xLjIzNDA3NzQgMi4zMDUzODk0LTIuNjIzMjQ1MnptLTkxLjU5NTU5NjMgNjkuNTYxNDc3N2M5LjYyNDE2ODQtLjY2MTAyNiAxNS4wNTc1OTQzLTEwLjYxNjE4MDQtMS44NjEyOTc2LTEwLjA0MzkzMDEtMjYuMjIxMzgyMS0yLjcxNDY2MDYgMjMuMTM0Njc0MSA4Ljk3ODMzMjUtMy4zNjM4IDUuNjM0OTAzLTMuNTYwNTczNyAyLjM1NzkxMDIgNS4wMTgyNTcxIDUuMDYxNDMxOSA1LjIyNTA5NzYgNC40MDkwMjcxem0tMTMuNDc2NjUwMy03Ni4wMjIwNDEzYzE3LjE3NjI1MDUtNS44NDMyODQ2IDM4Ljg1OTYwMDEtMTAuODA2MjA1NyA0OC41MjY2Njg1IDMuMjg1NzI4NS03LjI3MTQzODYtMTAuMjU4OTI2NC0zLjA4MzAxNTQtMjAuMTIyMDcwMyA0LjcxMjY0NjUtNS41OTc3ODU5IDExLjAyMzE1NTIgMTQuNjk1NDgwMyAxNC45Nzg2NjgyLTMuNzc1NzQxNiA5LjM3MTk0ODItMTEuNjEzMDUyNCA1LjMzNDIwNTYgOC40MzY4Mjg2IDI1LjEzODA0NjMgMjYuODA3NzQ2OSA1LjQ3MDQyODUuNjQxNjQ3MyAxMy4wMzIyNTcxLTE1LjY3NjQ5MDgtMjYuMDk0ODYzOSAyLjA1MjgxMDctMzQuOTg4MTg5NyAxLjg3NDI3NTItNC4yNzg5MTUzIDEuOTIwNTc4LTQ0LjE3NjM2ODYgMTAuMTc0OTM0My0zMy4wOTM1MDIgMTEuNDA5MTg3M3ptMTAuMDY2MjQ5OS0xOS4yNzg2NzEzYzkuNzk1NzY4Ny03LjM5MzQ5MzcgMzMuODc4OTU5NyA0LjM5NzkwMzQgMTguNDI0OTE5MS03LjM0NzgyNDEtMS41MTA5MzI5LTEuMzM0NjI1Mi0zMy44NDQ0NTE5IDguOTA2OTQ0My0xOC40MjQ5MTkxIDcuMzQ3ODI0MXptMzUuNzEyMzg3MSAxLjQ3NDM4ODFjMTEuNDY0NTg0NC4yOTI1NDkxLTQuOTQ1MTgyOC0xNS40MDE1NTc5IDguNzE2MzIzOS04LjI5MDA2OTYtMi4yNDM2NzUyLTcuMzI5NzcyOS0xNS45MDU4MzA0LTguNzAxOTk1OC0yMi41ODUwOTA2LTExLjYzMDQzOTgtMy43Nzc4MTY5IDYuNzAxNDkyNCA3LjY4OTYyODUgMjAuMDEwNTg5NyAxMy44Njg3NjY3IDE5LjkyMDUwOTR6bS00Mi4xMDgxOTI1LTUwLjI0OTk0NjZjLTEzLjAwODYxNzQtMTYuOTgxNTk5OCAyNC40NjQ0Njk5IDIuODU0NTUzMyAxMS4yNDc3MDM2LTE0LjkyNTc2OTgtMTEuMTI0MDczLTguODU4MTIxOC0yMS44MTM2NjczIDkuOTY4Mzk1My0xMS4yNDc3MDM2IDE0LjkyNTc2OTh6bTE2Ni45NDQ5MDgyIDg5LjkyMTMzMzRjNS45NjY0NjEyLTEwLjU3Njk3My0yNC42MzMxNDgyLTE0LjI1NzE1NjQtNC4wMjAwMDQzLTMuNzQ4NjI2NyAxLjg5Nzg1NzcuNjM0MTg1NyAxLjQ2ODMyMjggNC40ODAxNjM1IDQuMDIwMDA0MyAzLjc0ODYyNjd6Ii8+PC9zdmc+;" vertex="1" parent="1">
          <mxGeometry x="322.5" y="39.64" width="70" height="70" as="geometry" />
        </mxCell>
        <mxCell id="3JcrbyyqUBlUs0YY1mea-49" value="Deploy" style="text;html=1;align=center;verticalAlign=middle;resizable=0;points=[];autosize=1;strokeColor=none;fillColor=none;" vertex="1" parent="1">
          <mxGeometry x="767.34" y="-72" width="60" height="30" as="geometry" />
        </mxCell>
        <mxCell id="3JcrbyyqUBlUs0YY1mea-50" value="" style="edgeStyle=none;orthogonalLoop=1;jettySize=auto;html=1;rounded=0;entryX=0;entryY=0.5;entryDx=0;entryDy=0;" edge="1" parent="1" target="13">
          <mxGeometry width="100" relative="1" as="geometry">
            <mxPoint x="640" as="sourcePoint" />
            <mxPoint x="740" as="targetPoint" />
            <Array as="points" />
          </mxGeometry>
        </mxCell>
        <mxCell id="3JcrbyyqUBlUs0YY1mea-87" value="" style="edgeStyle=orthogonalEdgeStyle;rounded=0;orthogonalLoop=1;jettySize=auto;html=1;" edge="1" parent="1" source="3JcrbyyqUBlUs0YY1mea-51" target="3JcrbyyqUBlUs0YY1mea-47">
          <mxGeometry relative="1" as="geometry" />
        </mxCell>
        <mxCell id="3JcrbyyqUBlUs0YY1mea-51" value="Containerise" style="whiteSpace=wrap;html=1;" vertex="1" parent="1">
          <mxGeometry x="560" y="-18" width="120" height="48" as="geometry" />
        </mxCell>
        <mxCell id="3JcrbyyqUBlUs0YY1mea-61" value="Develop" style="text;html=1;align=center;verticalAlign=middle;resizable=0;points=[];autosize=1;strokeColor=none;fillColor=none;" vertex="1" parent="1">
          <mxGeometry x="315" y="-72" width="70" height="30" as="geometry" />
        </mxCell>
        <mxCell id="3JcrbyyqUBlUs0YY1mea-82" value="" style="edgeStyle=orthogonalEdgeStyle;rounded=0;orthogonalLoop=1;jettySize=auto;html=1;" edge="1" parent="1" source="3JcrbyyqUBlUs0YY1mea-62" target="3JcrbyyqUBlUs0YY1mea-45">
          <mxGeometry relative="1" as="geometry" />
        </mxCell>
        <mxCell id="3JcrbyyqUBlUs0YY1mea-62" value="Python(Flask)" style="whiteSpace=wrap;html=1;" vertex="1" parent="1">
          <mxGeometry x="315" y="-27" width="85" height="50" as="geometry" />
        </mxCell>
        <mxCell id="3JcrbyyqUBlUs0YY1mea-63" value="IAC" style="text;html=1;align=center;verticalAlign=middle;resizable=0;points=[];autosize=1;strokeColor=none;fillColor=none;" vertex="1" parent="1">
          <mxGeometry x="920" y="-70" width="40" height="30" as="geometry" />
        </mxCell>
        <mxCell id="3JcrbyyqUBlUs0YY1mea-72" value="provision" style="whiteSpace=wrap;html=1;" vertex="1" parent="1">
          <mxGeometry x="930" y="-29" width="120" height="60" as="geometry" />
        </mxCell>
        <mxCell id="3JcrbyyqUBlUs0YY1mea-73" value="" style="edgeStyle=none;orthogonalLoop=1;jettySize=auto;html=1;rounded=0;entryX=0;entryY=0.5;entryDx=0;entryDy=0;exitX=1;exitY=0.5;exitDx=0;exitDy=0;" edge="1" parent="1" source="13" target="3JcrbyyqUBlUs0YY1mea-72">
          <mxGeometry width="100" relative="1" as="geometry">
            <mxPoint x="860" as="sourcePoint" />
            <mxPoint x="960" as="targetPoint" />
            <Array as="points" />
          </mxGeometry>
        </mxCell>
        <mxCell id="3JcrbyyqUBlUs0YY1mea-75" value="Build" style="text;html=1;align=center;verticalAlign=middle;resizable=0;points=[];autosize=1;strokeColor=none;fillColor=none;" vertex="1" parent="1">
          <mxGeometry x="575" y="-72" width="50" height="30" as="geometry" />
        </mxCell>
        <mxCell id="3JcrbyyqUBlUs0YY1mea-79" value="" style="edgeStyle=none;orthogonalLoop=1;jettySize=auto;html=1;rounded=0;entryX=0;entryY=0.5;entryDx=0;entryDy=0;exitX=1;exitY=0.5;exitDx=0;exitDy=0;" edge="1" parent="1" source="3JcrbyyqUBlUs0YY1mea-62" target="3JcrbyyqUBlUs0YY1mea-45">
          <mxGeometry width="100" relative="1" as="geometry">
            <mxPoint x="390" y="-2" as="sourcePoint" />
            <mxPoint x="460" as="targetPoint" />
            <Array as="points" />
          </mxGeometry>
        </mxCell>
        <mxCell id="3JcrbyyqUBlUs0YY1mea-80" value="" style="edgeStyle=none;orthogonalLoop=1;jettySize=auto;html=1;rounded=0;entryX=0;entryY=0.5;entryDx=0;entryDy=0;" edge="1" parent="1" target="3JcrbyyqUBlUs0YY1mea-62">
          <mxGeometry width="100" relative="1" as="geometry">
            <mxPoint x="270" y="-2" as="sourcePoint" />
            <mxPoint x="350" as="targetPoint" />
            <Array as="points" />
          </mxGeometry>
        </mxCell>
        <mxCell id="3JcrbyyqUBlUs0YY1mea-83" value="" style="edgeStyle=none;orthogonalLoop=1;jettySize=auto;html=1;rounded=0;" edge="1" parent="1" source="3JcrbyyqUBlUs0YY1mea-45">
          <mxGeometry width="100" relative="1" as="geometry">
            <mxPoint x="500" y="10" as="sourcePoint" />
            <mxPoint x="550" y="-4" as="targetPoint" />
            <Array as="points" />
          </mxGeometry>
        </mxCell>
      </root>
    </mxGraphModel>
  </diagram>
</mxfile>
